<svg width="28" height="28" fill="none" xmlns="http://www.w3.org/2000/svg"><path d="M12.785 4.04a.3.3 0 0 0-.41.11l-4.078 7.065a.5.5 0 0 0 .183.683l.556.32-2.095 5.221a.5.5 0 0 0 .214.62l.49.283-2.22 3.911a.5.5 0 0 0 .434.747h5.402a.5.5 0 0 0 .39-.186l1.19-1.472.491.283a.5.5 0 0 0 .643-.124l3.474-4.425.557.322a.5.5 0 0 0 .683-.183l4.079-7.065a.3.3 0 0 0-.11-.41l-.347-.2a.3.3 0 0 0-.41.11l-3.828 6.632-.176-.102a.204.204 0 0 0-.023-.016l-8.261-4.77a.204.204 0 0 0-.025-.011l-.175-.101L13.24 4.65a.3.3 0 0 0-.11-.41l-.346-.2Zm-2.874 8.684 6.663 3.847-3.118 3.971L8.03 17.41l1.881-4.685Z" fill="#000"/></svg>