<svg width="28" height="28" fill="none" xmlns="http://www.w3.org/2000/svg"><path d="M14 4c1.548 0 2.8 1.307 3.634 3.068.341.721.626 1.547.847 2.45.903.221 1.73.507 2.45.848C22.693 11.201 24 12.452 24 14c0 1.611-1.414 2.9-3.297 3.738l-.457.203-.406-.913.457-.203C22.107 16.021 23 14.977 23 14c0-.937-.82-1.936-2.496-2.73a11.456 11.456 0 0 0-1.792-.66A19.67 19.67 0 0 1 19 14c0 .1-.004.198-.005.297l1.505-1.504.707.707-2.707 2.707-.525-.524-.04-.002.001-.037-2.143-2.144.707-.707 1.495 1.495c.001-.096.005-.192.005-.288a18.4 18.4 0 0 0-.355-3.646A18.408 18.408 0 0 0 14 10c-1.302 0-2.534.127-3.647.354A18.402 18.402 0 0 0 10 14c0 1.3.127 2.533.353 3.645A18.4 18.4 0 0 0 14 18c.096 0 .192-.003.288-.005L12.793 16.5l.707-.707 2.707 2.707-2.707 2.707-.707-.707 1.504-1.505c-.099.002-.198.005-.297.005-1.187 0-2.33-.102-3.39-.288.185.658.407 1.26.66 1.792C12.062 22.18 13.062 23 14 23c.977 0 2.02-.894 2.825-2.703l.203-.457.913.406-.203.457C16.901 22.587 15.611 24 14 24c-1.549 0-2.8-1.307-3.634-3.068a12.965 12.965 0 0 1-.849-2.45 12.972 12.972 0 0 1-2.449-.848C5.307 16.799 4 15.548 4 14s1.307-2.8 3.068-3.634a12.97 12.97 0 0 1 2.45-.848c.22-.903.506-1.729.848-2.45C11.2 5.307 12.451 4 14 4Zm-4.713 6.61c-.658.186-1.26.408-1.791.66C5.819 12.064 5 13.063 5 14s.82 1.936 2.496 2.73a11.54 11.54 0 0 0 1.79.659A19.674 19.674 0 0 1 9 14c0-1.187.1-2.33.287-3.39ZM14 5c-.937 0-1.937.82-2.73 2.496a11.444 11.444 0 0 0-.66 1.791A19.674 19.674 0 0 1 14 9c1.187 0 2.328.1 3.388.287a11.446 11.446 0 0 0-.658-1.79C15.936 5.82 14.937 5 14 5Z" fill="#000"/></svg>