<svg width="28" height="28" fill="none" xmlns="http://www.w3.org/2000/svg"><path d="M14 20c4.207 0 6.52 2.288 7.424 3.735l-.848.53C19.814 23.045 17.793 21 14 21c-3.793 0-5.814 2.045-6.576 3.265l-.848-.53C7.481 22.288 9.793 20 14 20Zm1-14.006h-4V18h-1V5.994L6 6V5h9v.994Zm2.871 2.11c1.049 0 1.831.272 2.347.817.521.545.782 1.394.782 2.549v6.354h-.642l-.22-1.512h-.07c-.48.616-.975 1.052-1.485 1.31-.504.252-1.102.378-1.793.378-.938 0-1.667-.24-2.188-.72-.522-.481-.783-1.146-.783-1.996 0-.932.387-1.655 1.16-2.17.78-.516 1.905-.789 3.376-.818l1.819-.053v-.633c0-.908-.185-1.593-.554-2.056-.369-.463-.964-.695-1.784-.695-.885 0-1.802.246-2.751.739l-.325-.756c1.049-.492 2.086-.738 3.111-.738Zm.598 4.93c-1.342.065-2.3.276-2.874.633-.569.352-.853.902-.853 1.652 0 .598.182 1.064.545 1.398.37.328.888.492 1.556.492 1.02 0 1.822-.29 2.408-.87.592-.586.888-1.398.888-2.435v-.94l-1.67.07Z" fill="#000"/></svg>