<svg width="28" height="28" fill="none" xmlns="http://www.w3.org/2000/svg"><path d="M16 22.54 10.324 18H5v-8h5.324L16 5.46v17.08ZM10.676 11H6v6h4.676L15 20.459V7.54L10.676 11Zm9.19-4.84.03.03.104.113c.088.097.212.24.36.424.294.368.684.905 1.075 1.587C22.213 9.677 23 11.638 23 14s-.787 4.323-1.565 5.686c-.39.682-.781 1.22-1.076 1.587a9.304 9.304 0 0 1-.359.424c-.044.049-.08.086-.105.113l-.029.03-.366.367-.707-.707.354-.354.003-.004.022-.022c.019-.02.048-.05.086-.093.076-.084.186-.211.32-.379.268-.334.628-.829.987-1.459C21.287 17.927 22 16.14 22 14c0-2.138-.713-3.928-1.435-5.19a11.42 11.42 0 0 0-.987-1.458 8.453 8.453 0 0 0-.406-.472l-.022-.022-.003-.004-.354-.354.707-.707.366.366Z" fill="#000"/><path d="M18.916 10.223h.001l.001.003.004.005.01.017.038.06c.03.052.074.125.125.218.102.187.235.455.369.789.266.664.536 1.604.536 2.685 0 1.082-.27 2.02-.536 2.686a7.38 7.38 0 0 1-.494 1.005l-.037.061-.011.017-.004.005-.001.002-.001.001-.277.416-.832-.554.283-.425.026-.042a6.397 6.397 0 0 0 .42-.857A6.301 6.301 0 0 0 19 14c0-.918-.23-1.73-.464-2.315a6.397 6.397 0 0 0-.42-.857c-.011-.02-.02-.033-.026-.042l-.283-.425.832-.554.277.416Z" fill="#000"/></svg>