<svg width="28" height="28" fill="none" xmlns="http://www.w3.org/2000/svg"><path d="M25 7H9.922L6.993 24.085l-.99-.019L5.064 17H3v-1h2.938l.624 4.68L9.078 6H25v1Z" fill="#000"/><path d="M20.615 12.278c.308 0 .552.083.73.247.187.165.28.366.28.602 0 .272-.054.458-.161.558a1 1 0 0 1-.688.27 1.38 1.38 0 0 1-.483-.098c-.337-.114-.562-.171-.677-.171-.172 0-.376.1-.612.3-.444.373-.974 1.092-1.59 2.16l.88 3.695c.137.566.252.906.345 1.02.093.108.186.162.279.162.15 0 .326-.083.526-.248.394-.329.73-.759 1.01-1.289l.376.194a6.727 6.727 0 0 1-1.719 2.105c-.394.315-.727.473-.999.473-.4 0-.72-.226-.956-.677-.15-.28-.462-1.482-.934-3.61-1.118 1.941-2.013 3.191-2.686 3.75-.437.358-.86.537-1.267.537a1.16 1.16 0 0 1-.785-.312c-.171-.157-.257-.369-.257-.634 0-.236.078-.433.236-.59a.788.788 0 0 1 .58-.237c.23 0 .473.115.73.344.187.165.33.247.43.247.086 0 .197-.057.333-.172.337-.272.795-.86 1.375-1.761.58-.903.96-1.555 1.139-1.956-.444-1.74-.684-2.66-.72-2.76-.165-.466-.38-.795-.645-.989-.264-.193-.655-.29-1.17-.29-.165 0-.355.008-.57.022v-.387l2.868-.505c.351.373.616.745.795 1.117.13.258.34.935.634 2.03l.945-1.417c.251-.344.555-.67.914-.978.358-.315.673-.53.945-.644.172-.072.362-.108.57-.108Z" fill="#000"/></svg>