<svg width="28" height="28" fill="none" xmlns="http://www.w3.org/2000/svg"><path d="M19 14.5V7a1 1 0 0 0-2 0v7.5a.5.5 0 0 1-1 0V5a1 1 0 0 0-2 0v9.5a.5.5 0 0 1-1 0V8a1 1 0 0 0-2 0v9.5a.5.5 0 0 1-.935.248l-1.48-2.59a1.304 1.304 0 0 0-1.132-.658.851.851 0 0 0-.802 1.148c.784 2.046 1.799 4.403 3.236 6.246C11.317 23.728 13.122 25 15.5 25c1.569 0 2.723-.453 3.59-1.2.878-.755 1.503-1.846 1.942-3.186.883-2.697.964-6.241.968-9.615l-.005-.103A1 1 0 0 0 20 11v3.5a.5.5 0 0 1-1 0Zm-2-9.23A2 2 0 0 1 20 7v2.27A1.999 1.999 0 0 1 23 11c-.004 3.345-.077 7.052-1.018 9.925-.473 1.445-1.177 2.72-2.239 3.634C18.673 25.48 17.278 26 15.5 26c-2.794 0-4.86-1.514-6.402-3.491-1.535-1.969-2.592-4.448-3.38-6.503-.466-1.216.446-2.506 1.735-2.506.827 0 1.59.443 2 1.161l.547.956V8a2 2 0 0 1 3-1.73V5a2 2 0 1 1 4 0v.27Z" fill="#000"/></svg>