<svg width="28" height="28" fill="none" xmlns="http://www.w3.org/2000/svg"><path d="M19 17h2v1h-3v-5h1v4Z" fill="#000"/><path d="M18.5 11a6.5 6.5 0 1 1 0 13 6.5 6.5 0 0 1 0-13Zm0 1a5.5 5.5 0 1 0 0 11 5.5 5.5 0 0 0 0-11Z" fill="#000"/><path d="M6 5h2V4h1v1h3V4h1v1h2V4h1v1h2v5h-1V6h-1v1h-1V6h-2v1h-1V6H9v1H8V6H6v1H5V6H4v11h7v1H3V5h2V4h1v1Z" fill="#000"/><path d="M6 15H5v-1h1v1Zm2 0H7v-1h1v1Zm-2-2H5v-1h1v1Zm2 0H7v-1h1v1Zm2 0H9v-1h1v1Zm2 0h-1v-1h1v1Zm-6-2H5v-1h1v1Zm2 0H7v-1h1v1Zm2 0H9v-1h1v1Zm2 0h-1v-1h1v1Zm2 0h-1v-1h1v1Zm2 0h-1v-1h1v1ZM6 9H5V8h1v1Zm2 0H7V8h1v1Zm2 0H9V8h1v1Zm2 0h-1V8h1v1Zm2 0h-1V8h1v1Zm2 0h-1V8h1v1Z" fill="#000"/></svg>