<svg width="28" height="28" fill="none" xmlns="http://www.w3.org/2000/svg"><path d="M14 11a3 3 0 1 1 0 6 3 3 0 0 1 0-6Zm0 1a2 2 0 1 0 0 4 2 2 0 0 0 0-4Z" fill="#000"/><path d="M16.067 4c.256 0 .416.141.48.423l.385 2.629a7.91 7.91 0 0 1 1.73.985l2.547-.985c.288-.094.496-.032.624.187l2.067 3.475c.16.282.128.5-.096.657l-2.162 1.643c.032.219.048.548.048.986l-.013.575a4.79 4.79 0 0 1-.035.411l2.162 1.643c.224.156.256.375.096.657l-2.067 3.475c-.112.191-.285.263-.52.216l-.104-.029-2.548-.985c-.672.47-1.249.797-1.73.985l-.384 2.63c-.064.28-.224.422-.48.422h-4.133l-.092-.007c-.174-.026-.294-.132-.36-.316l-.029-.1-.384-2.629a7.911 7.911 0 0 1-1.73-.985l-2.548.985c-.288.094-.496.032-.624-.187l-2.066-3.475c-.16-.282-.129-.5.095-.657l2.163-1.643A7.427 7.427 0 0 1 6.31 14c0-.438.015-.767.048-.986L4.196 11.37c-.196-.137-.245-.322-.147-.555l.052-.102 2.066-3.475c.128-.219.336-.281.624-.187l2.548.985c.672-.47 1.249-.797 1.73-.985l.384-2.63c.056-.246.186-.384.389-.415L11.934 4h4.133Zm-4.093 3.771-.541.212c-.377.148-.88.427-1.522.874l-.437.305-2.672-1.034-1.625 2.731 2.257 1.716-.085.584A6.541 6.541 0 0 0 7.31 14c0 .427.017.696.038.84l.085.585-2.257 1.715 1.625 2.731 2.176-.84.515-.2.444.33c.36.269.733.498 1.12.687l.392.175.527.217.403 2.76h3.242l.405-2.771.541-.212c.377-.148.88-.427 1.522-.874l.438-.305.496.192 2.174.841 1.625-2.731-2.255-1.715.084-.584a6.55 6.55 0 0 0 .04-.841 6.55 6.55 0 0 0-.039-.84l-.084-.585 2.255-1.716-1.625-2.731-2.174.842-.516.2-.443-.331a6.92 6.92 0 0 0-1.513-.862l-.526-.217L15.62 5h-3.24l-.405 2.771Z" fill="#000"/></svg>