<svg width="28" height="28" fill="none" xmlns="http://www.w3.org/2000/svg"><path d="M19 10h-1V7H4v11h6v1H3V3h16v7ZM4 6h14V4H4v2Z" fill="#000"/><path d="M10 16H6v-1h4v1Zm0-3H6v-1h4v1Zm6-3H6V9h10v1Zm7 2a2 2 0 0 1 2 2v1a1 1 0 0 1-1 1h-2v7a2 2 0 0 1-2 2h-9l-.204-.01a2 2 0 0 1-1.785-1.786L9 23v-1a1 1 0 0 1 1-1h2v-7c0-.134.014-.266.04-.393.005-.028.013-.056.02-.084.008-.034.016-.07.026-.103l.032-.093.031-.087.033-.07a2.02 2.02 0 0 1 .187-.326 1.89 1.89 0 0 1 .386-.409l.082-.06.07-.049c.027-.018.056-.035.084-.052l.078-.044c.028-.015.057-.028.086-.042l.087-.039.08-.03c.032-.011.064-.023.097-.033.046-.014.094-.026.141-.036l.039-.01c.064-.013.13-.022.197-.03L14 12h9ZM10 22v1a1 1 0 0 0 1 1h7.27a1.99 1.99 0 0 1-.27-1v-1h-8Zm3.898-8.995c-.039.004-.077.01-.114.018l-.045.012a1.016 1.016 0 0 0-.083.027l-.024.007a1.035 1.035 0 0 0-.14.07.558.558 0 0 0-.052.032l-.025.018-.022.017a.976.976 0 0 0-.084.072 1.01 1.01 0 0 0-.15.182l-.013.02a.992.992 0 0 0-.132.356l-.004.028A.995.995 0 0 0 13 14v7h6v2l.005.102A1 1 0 0 0 21 23v-9c0-.364.097-.706.268-1H14l-.102.005Zm9.006 0a1 1 0 0 0-.9.893L22 14v1h2v-1a1 1 0 0 0-1-1l-.096.005Z" fill="#000"/></svg>