<svg width="28" height="28" fill="none" xmlns="http://www.w3.org/2000/svg"><path d="M16.087 3.05a.1.1 0 0 0-.137.037l-4.45 7.708-2.225 7.778a.199.199 0 0 0 .091.227l.07.04 3.924 2.265.068.04a.2.2 0 0 0 .242-.035l5.624-5.815-.054-.032.054.032 4.45-7.708a.1.1 0 0 0-.036-.136l-.693-.4a.1.1 0 0 0-.137.036l-3.95 6.842-6.062-3.5 3.95-6.842a.1.1 0 0 0-.036-.136l-.693-.4Zm2.341 11.744-5.042 5.172-2.978-1.72 1.958-6.951 6.062 3.5Zm-8.763 4.179s-1.134 3.964-.268 4.464c.866.5 3.732-2.464 3.732-2.464l-3.464-2Z" fill="#000"/></svg>