<svg xmlns="http://www.w3.org/2000/svg" width="28" height="28" fill="none"><path fill="#000" d="M9 4H4v5h5V4ZM8 5v3H5V5h3Zm1 7H4v12h5V12Zm-1 1v10H5V13h3Zm4-4h12V4H12v5Zm1-4h10v3H13V5Zm5.403 10.063-.138.496h-1.121l-.845 3.282c-.374 1.447-.75 2.566-1.129 3.357-.537 1.117-1.116 1.888-1.736 2.314-.47.325-.942.488-1.413.488a1.18 1.18 0 0 1-.783-.27.593.593 0 0 1-.238-.49c0-.16.067-.3.2-.42a.686.686 0 0 1 .476-.173c.138 0 .256.043.353.128a.39.39 0 0 1 .138.293c0 .11-.053.213-.161.308-.082.07-.123.122-.123.157 0 .045.018.08.054.106.046.034.118.052.215.052.22 0 .453-.067.699-.203.24-.135.455-.338.645-.608.19-.265.368-.651.537-1.157.072-.21.264-.904.576-2.08l1.337-5.085h-1.337l.108-.496c.425 0 .722-.027.89-.082.17-.06.323-.17.462-.33.143-.166.327-.471.553-.917.302-.601.59-1.067.867-1.397.38-.446.776-.779 1.19-.999.42-.225.815-.338 1.183-.338.39 0 .702.098.937.293.236.19.354.398.354.623a.609.609 0 0 1-.63.624.571.571 0 0 1-.392-.135.425.425 0 0 1-.146-.323c0-.08.034-.178.1-.293.067-.12.1-.2.1-.24 0-.07-.023-.123-.07-.158a.48.48 0 0 0-.291-.075c-.323 0-.612.1-.868.3-.343.265-.65.68-.921 1.247-.139.295-.392 1.029-.76 2.2h1.128Z"/><path fill="#000" d="M20.845 14.883c.251.26.44.52.569.781.092.18.243.654.453 1.42l.675-.992c.18-.24.397-.468.653-.683.256-.22.482-.37.676-.45.123-.05.259-.076.407-.076.22 0 .394.058.522.173.133.115.2.255.2.42 0 .19-.038.32-.115.391a.726.726 0 0 1-.492.188c-.107 0-.222-.023-.345-.068-.24-.08-.402-.12-.484-.12-.123 0-.269.07-.438.21-.317.26-.696.764-1.136 1.51l.63 2.584c.097.395.178.633.245.713.067.075.133.113.2.113.107 0 .233-.058.376-.173.282-.23.522-.53.722-.901l.269.135a4.724 4.724 0 0 1-1.229 1.472c-.282.22-.52.33-.714.33-.287 0-.515-.157-.684-.473-.107-.195-.33-1.036-.668-2.523-.799 1.357-1.439 2.23-1.92 2.621-.312.25-.614.375-.906.375a.84.84 0 0 1-.56-.217.566.566 0 0 1-.185-.443c0-.166.056-.303.17-.413a.57.57 0 0 1 .414-.166c.164 0 .338.08.522.24.133.116.235.173.307.173.062 0 .14-.04.238-.12.24-.19.569-.6.983-1.232.415-.63.686-1.086.814-1.366a80.086 80.086 0 0 0-.514-1.93c-.118-.326-.272-.557-.461-.692-.19-.135-.469-.203-.837-.203a6.35 6.35 0 0 0-.407.015v-.27l2.05-.353Z"/></svg>