<svg xmlns="http://www.w3.org/2000/svg" width="28" height="28" fill="none"><path fill="#000" d="M12 21H5v-1h7v1Zm8 0h-6v-1h6v1Zm-8-2H5v-1h7v1Zm8 0h-6v-1h6v1Zm-8-2H5v-1h7v1Zm8 0h-6v-1h6v1Zm-8-2H2v-1h10v1Zm8 0h-6v-1h6v1Zm-8-4H5v-1h7v1Zm8 0h-6v-1h6v1Zm-8-2H5V8h7v1Zm8 0h-6V8h6v1Zm-8-2H5V6h7v1Zm8 0h-6V6h6v1Zm-8-2H5V4h7v1Zm8 0h-6V4h6v1Zm-8-2H2V2h10v1Zm8 0h-6V2h6v1Z" opacity=".4"/><path fill="#000" d="M12 25H2v-1h10v1Zm8 0h-6v-1h6v1Zm6 0h-4v-1h4v1Zm0-4h-4v-1h4v1Zm0-2h-4v-1h4v1Zm0-2h-4v-1h4v1Zm0-2h-4v-1h4v1Zm0-4h-4v-1h4v1Zm0-2h-4V8h4v1Zm0-2h-4V6h4v1Zm0-2h-4V4h4v1Zm0-2h-4V2h4v1Z"/></svg>