<svg xmlns="http://www.w3.org/2000/svg" width="28" height="28" fill="none"><path fill="#000" d="M18 12a2 2 0 0 1 2 2l.102.005A1 1 0 0 1 21 15v3a1 1 0 0 1-.898.995L20 19h-4a1 1 0 0 1-.995-.898L15 18v-3a1 1 0 0 1 1-1 2 2 0 0 1 2-2Zm-2 6h4v-3h-4v3Zm2-5a1 1 0 0 0-1 1h2a1 1 0 0 0-1-1Z"/><path fill="#000" d="M18 11h-1V9h-6v3h4v1h-4v3h3v1H3V9a1 1 0 0 1 1-1h14v3ZM4 16h6v-3H4v3Zm0-4h6V9H4v3Z"/><path fill="#000" d="M24 8a1 1 0 0 1 1 1v11a1 1 0 0 1-1 1H4a1 1 0 0 1-.995-.898L3 20v-4h11v1h-3v3h13v-3h-2v-1h2v-3h-3v-1h3V9h-6v2h-1V8h7ZM4 20h6v-3H4v3Z" opacity=".4"/></svg>