<svg xmlns="http://www.w3.org/2000/svg" width="28" height="28" fill="none"><path fill="#000" d="M10 24H2v-1h8v1Zm0-2H2v-1h8v1Zm0-2H2v-1h8v1Zm0-2H2v-1h8v1Zm0-2H2v-1h8v1Zm0-4H2v-1h8v1Zm0-2H2V9h8v1Zm0-2H2V7h8v1Zm0-2H2V5h8v1Zm0-2H2V3h8v1Z"/><path fill="#000" d="M19 24h-7v-1h7v1Zm6 0h-4v-1h4v1Zm-6-2h-7v-1h7v1Zm6 0h-4v-1h4v1Zm-6-2h-7v-1h7v1Zm6 0h-4v-1h4v1Zm-6-2h-7v-1h7v1Zm6 0h-4v-1h4v1Zm-6-2h-7v-1h7v1Zm6 0h-4v-1h4v1Zm-6-4h-7v-1h7v1Zm6 0h-4v-1h4v1Zm-6-2h-7V9h7v1Zm6 0h-4V9h4v1Zm-6-2h-7V7h7v1Zm6 0h-4V7h4v1Zm-6-2h-7V5h7v1Zm6 0h-4V5h4v1Zm-6-2h-7V3h7v1Zm6 0h-4V3h4v1Z" opacity=".4"/></svg>