<svg xmlns="http://www.w3.org/2000/svg" width="28" height="28" fill="none"><path fill="#000" d="M20 22v1h-6v-1h6Zm0-1h-6v-1h6v1Zm-8-5v1h-1v-1h1Z"/><path fill="#000" d="M21 11a1 1 0 0 1 1 1v2h2a1 1 0 0 1 1 1v6a1 1 0 0 1-1 1h-2v2a1 1 0 0 1-1 1h-8a1 1 0 0 1-1-1v-2h-2a1 1 0 0 1-1-1v-6a1 1 0 0 1 1-1h2v-2a1 1 0 0 1 1-1h8Zm-8 13h8v-5h-8v5Zm-3-3h2v-2a1 1 0 0 1 1-1h8a1 1 0 0 1 1 1v2h2v-6H10v6Zm3-9v2h8v-2h-8Zm-7 8h2v1H6a1 1 0 0 1-1-1v-2h1v2Zm0-4H5v-3h1v3Zm0-5H5V8h1v3Zm14-1h-1V8h1v2ZM8 4H6v2H5V4a1 1 0 0 1 1-1h2v1Zm11-1a1 1 0 0 1 1 1v2h-1V4h-2V3h2Zm-4 1h-5V3h5v1Z"/></svg>