<svg xmlns="http://www.w3.org/2000/svg" width="28" height="28" fill="none"><path fill="#000" d="M7.658 14.992c.323.335.566.67.73 1.005.12.232.314.84.583 1.825l.87-1.275c.23-.309.51-.602.839-.879.329-.283.618-.476.869-.579a1.38 1.38 0 0 1 .523-.097c.283 0 .507.074.671.223a.69.69 0 0 1 .257.54c0 .245-.05.412-.148.502a.933.933 0 0 1-.632.242c-.138 0-.286-.029-.444-.087-.31-.103-.517-.154-.622-.154-.158 0-.346.09-.563.27-.408.335-.895.982-1.462 1.94l.81 3.323c.125.508.23.814.316.917.086.097.171.145.257.145.138 0 .3-.074.484-.222a3.81 3.81 0 0 0 .928-1.159l.345.174a6.076 6.076 0 0 1-1.58 1.893c-.361.283-.668.424-.918.424-.368 0-.661-.202-.879-.608-.138-.25-.424-1.332-.859-3.245-1.026 1.745-1.85 2.869-2.468 3.37-.402.323-.79.483-1.165.483a1.08 1.08 0 0 1-.72-.28.728.728 0 0 1-.238-.57.733.733 0 0 1 .75-.744c.211.001.435.104.672.31.171.148.303.222.395.222.079 0 .18-.051.306-.154.31-.245.73-.773 1.264-1.584.533-.811.882-1.397 1.046-1.757-.408-1.565-.628-2.392-.661-2.482-.151-.419-.349-.715-.592-.889-.244-.173-.603-.26-1.077-.26a8.03 8.03 0 0 0-.523.019v-.348l2.636-.454ZM21 9.5a4.5 4.5 0 1 0-9 0 4.5 4.5 0 0 0 9 0Zm-.98 4.227a5.5 5.5 0 1 1 .707-.707l4.127 4.127-.707.707-4.127-4.127Z"/></svg>