<svg xmlns="http://www.w3.org/2000/svg" width="28" height="28" fill="none"><path fill="#000" d="M3 7h7v3H3V7Zm15 0h7v3h-7V7Zm-8 8H3v3h7v-3Z" opacity=".4"/><path fill="#000" d="M4 8h5v1H4V8Zm5 4H4v1h5v-1Zm-5 8h5v1H4v-1Zm5-4H4v1h5v-1Z"/><path fill="#000" d="M11 6H2v17h9V6Zm-1 1v3H3V7h7Zm0 7H3v-3h7v3Zm-7 8v-3h7v3H3Zm0-7h7v3H3v-3Zm21-7h-5v1h5V8Zm0 4h-5v1h5v-1Z"/><path fill="#000" d="M17 23h9V6h-9v17Zm8-16v3h-7V7h7Zm0 7h-7v-3h7v3Zm-7 8v-3h7v3h-7Zm7-7v3h-7v-3h7Zm-8.793-.5-2.353-2.354-.708.708L14.293 14H12v1h2.293l-1.147 1.146.708.708 2.353-2.354Z"/></svg>