<svg xmlns="http://www.w3.org/2000/svg" width="28" height="28" fill="none"><path fill="#000" d="M2 7.5A1.5 1.5 0 0 1 3.5 6H21v1H3.5a.5.5 0 0 0-.5.5V18H2V7.5Z"/><path fill="#000" d="M4 9.5A1.5 1.5 0 0 1 5.5 8H23v1H5.5a.5.5 0 0 0-.5.5V20H4V9.5Z"/><path fill="#000" d="M11 21v-1h7v-1H7v-8h17v3h1v-3a1 1 0 0 0-1-1H7a1 1 0 0 0-1 1v10a1 1 0 0 0 1 1h3a1 1 0 0 0 1-1Z"/><path fill="#000" d="M20 18v-.5a2.5 2.5 0 0 1 5 0v.5a1 1 0 0 1 1 1v4a1 1 0 0 1-1 1h-5a1 1 0 0 1-1-1v-4a1 1 0 0 1 1-1Zm4-.5a1.5 1.5 0 0 0-3 0v.5h3v-.5Zm1 1.5h-5v4h5v-4Z"/><path fill="#000" d="M13 11h-1v2H7v1h5v2H7v1h5v2h1v-2h6v-3h5v-1h-5v-2h-1v2h-5v-2Zm5 5h-5v-2h5v2Z" opacity=".4"/></svg>