<svg xmlns="http://www.w3.org/2000/svg" width="28" height="28" fill="none"><path fill="#000" d="M10 20a1 1 0 0 1 1 1v1a1 1 0 0 1-1 1H8a1 1 0 0 1-1-1v-1a1 1 0 0 1 1-1h2Zm-2 2h2v-1H8v1Zm7-2a1 1 0 0 1 1 1v1a1 1 0 0 1-1 1h-2a1 1 0 0 1-1-1v-1a1 1 0 0 1 1-1h2Zm-2 2h2v-1h-2v1Zm7-6a1 1 0 0 1 1 1v5a1 1 0 0 1-1 1h-2a1 1 0 0 1-1-1v-5a1 1 0 0 1 1-1h2Zm-2 6h2v-5h-2v5Zm-8-6a1 1 0 0 1 1 1v1a1 1 0 0 1-1 1H8a1 1 0 0 1-1-1v-1a1 1 0 0 1 1-1h2Zm-2 2h2v-1H8v1Zm7-2a1 1 0 0 1 1 1v1a1 1 0 0 1-1 1h-2a1 1 0 0 1-1-1v-1a1 1 0 0 1 1-1h2Zm-2 2h2v-1h-2v1Zm-3-6a1 1 0 0 1 1 1v1a1 1 0 0 1-1 1H8a1 1 0 0 1-1-1v-1a1 1 0 0 1 1-1h2Zm-2 2h2v-1H8v1Zm7-2a1 1 0 0 1 1 1v1a1 1 0 0 1-1 1h-2a1 1 0 0 1-1-1v-1a1 1 0 0 1 1-1h2Zm-2 2h2v-1h-2v1Zm7-2a1 1 0 0 1 1 1v1a1 1 0 0 1-1 1h-2a1 1 0 0 1-1-1v-1a1 1 0 0 1 1-1h2Zm-2 2h2v-1h-2v1Zm2-8a1 1 0 0 1 1 1v2a1 1 0 0 1-1 1H8a1 1 0 0 1-1-1V7a1 1 0 0 1 1-1h12ZM8 9h12V7H8v2Z"/><path fill="#000" d="M22 3a1 1 0 0 1 1 1v20a1 1 0 0 1-1 1H6a1 1 0 0 1-1-1V4a1 1 0 0 1 1-1h16ZM6 24h16V4H6v20Z"/></svg>