<svg xmlns="http://www.w3.org/2000/svg" width="28" height="28" fill="none"><path fill="#000" d="M8.593 21.512c.694 0 1.04.414 1.04 1.244 0 .83-.346 1.244-1.04 1.244-.677 0-1.016-.415-1.016-1.244 0-.83.339-1.244 1.016-1.244ZM23.707 20.5l-3.354 3.354-.707-.707L21.793 21H13.5v-1h8.293l-2.146-2.146.707-.707 3.353 3.353ZM9.291 4.919c1.549 0 2.768.419 3.656 1.257.889.83 1.333 1.972 1.333 3.428 0 .575-.076 1.079-.228 1.51a4.493 4.493 0 0 1-.648 1.206c-.27.364-.6.72-.99 1.067-.39.338-.82.706-1.295 1.104-.541.457-.96.876-1.257 1.257a3.917 3.917 0 0 0-.634 1.18c-.127.415-.19 1.033-.19 1.854V19H7.995v-.51c0-1.04.157-1.891.47-2.551.321-.66.91-1.367 1.764-2.12l1.156-1.004c.61-.516 1.045-1.028 1.307-1.536.263-.508.394-1.091.394-1.752 0-1.075-.356-1.93-1.066-2.564-.703-.635-1.63-.952-2.78-.952-.67 0-1.296.076-1.88.228a9.612 9.612 0 0 0-1.891.711L5 5.935c.931-.407 1.71-.678 2.336-.813A9.345 9.345 0 0 1 9.29 4.92Z"/></svg>