<svg xmlns="http://www.w3.org/2000/svg" width="28" height="28" fill="none"><path fill="#000" d="M18 18v1h-.5a2.5 2.5 0 0 0 0 5h4a2.5 2.5 0 0 0 0-5H21v-1h.5a3.5 3.5 0 1 1 0 7h-4l-.18-.005a3.5 3.5 0 0 1 0-6.99L17.5 18h.5Z"/><path fill="#000" d="M16.5 15a3.5 3.5 0 1 1 0 7H16v-1h.5a2.5 2.5 0 0 0 0-5h-4a2.5 2.5 0 0 0 0 5h.5v1h-.5l-.18-.005a3.5 3.5 0 0 1 0-6.99L12.5 15h4Z"/><path fill="#000" d="M14.586 3a1 1 0 0 1 .707.293l5.414 5.414a1 1 0 0 1 .293.707V16h-1v-6h-5a1 1 0 0 1-1-1V4H6v20h7v1H6a1 1 0 0 1-1-1V4a1 1 0 0 1 1-1h8.586ZM15 9h4.586L15 4.414V9Z"/></svg>