<svg xmlns="http://www.w3.org/2000/svg" width="28" height="28" fill="none"><path fill="#000" d="M9 19c.6 0 1 .4 1 1v3c0 .6-.4 1-1 1H5c-.6 0-1-.4-1-1v-3c0-.6.4-1 1-1h4Zm-4 4h4v-3H5v3Zm12-7c.6 0 1 .4 1 1v6c0 .6-.4 1-1 1h-4c-.6 0-1-.4-1-1v-6c0-.6.4-1 1-1h4Zm-4 7h4v-6h-4v6Zm12-13c.6 0 1 .4 1 1v12c0 .6-.4 1-1 1h-4c-.6 0-1-.4-1-1V11c0-.6.4-1 1-1h4Zm-4 13h4V11h-4v12ZM10.5 7l.848 3.152L14.5 11l-3.152.848L10.5 15l-.849-3.152L6.5 11l3.151-.848L10.5 7Zm-5-4 .636 2.364L8.5 6l-2.364.636L5.5 9l-.636-2.364L2.5 6l2.364-.636L5.5 3ZM14 2l.53 1.97 1.97.53-1.97.53L14 7l-.53-1.97-1.97-.53 1.97-.53L14 2Z"/></svg>