<svg xmlns="http://www.w3.org/2000/svg" width="28" height="28" fill="none"><path fill="#000" d="M5 23h1v1H4v-2h1v1Zm4 1H7v-1h2v1Zm3 0h-2v-1h2v1Zm3 0h-2v-1h2v1Zm3 0h-2v-1h2v1Zm3 0h-2v-1h2v1Zm3 0h-2v-1h1v-1h1v2Zm-4-7h-2.293l4.646 4.646-.707.707L17 17.707V20h-1v-4h4v1ZM5 21H4v-2h1v2Zm19 0h-1v-2h1v2ZM5 18H4v-2h1v2Zm19 0h-1v-2h1v2Zm-9-3H4V4h11v11ZM5 10v4h4v-4H5Zm5 4h4v-4h-4v4ZM5 9h4V5H5v4Zm5 0h4V5h-4v4Zm14 6h-1v-2h1v2Zm0-3h-1v-2h1v2Zm0-3h-1V7h1v2Zm0-3h-1V5h-1V4h2v2Zm-6-1h-2V4h2v1Zm3 0h-2V4h2v1Z"/></svg>