<svg xmlns="http://www.w3.org/2000/svg" width="28" height="28" fill="none"><path fill="#000" d="M8 7V5H7v2h1Zm0 1v2h3v1H8v2h3v1H8v2h3v1H3V8h1v2h3V8h1Zm-4 3v2h3v-2H4Zm0 5h3v-2H4v2Zm7-6V8h1v2h-1Zm4 0V8h1v2h-1Zm-3-3h-1V5h1v2Zm9 7h-1v-2h1v2Zm-9 1v9h13v-9h-1v2h-3v-2h-1v2h-3v-2h-1v2h-3v-2h-1Zm1 5v-2h3v2h-3Zm0 1h3v2h-3v-2Zm4 0h3v2h-3v-2Zm4 0h3v2h-3v-2Zm3-1h-3v-2h3v2Zm-4 0h-3v-2h3v2Zm-4-6h1v-2h-1v2Z" opacity=".4"/><path fill="#000" d="M3 8V4h13v4H3Zm1-3v2h11V5H4Zm8 10v-4h13v4H12Zm1-3v2h11v-2H13Z"/></svg>