<svg xmlns="http://www.w3.org/2000/svg" width="28" height="28" fill="none"><path fill="#000" d="M23 12a1 1 0 0 1 1 1v9a1 1 0 0 1-1 1H12a1 1 0 0 1-1-1v-9a1 1 0 0 1 1-1h11ZM12 22h5v-2h-5v2Zm6 0h5v-2h-5v2Zm-6-3h5v-2h-5v2Zm6-2v2h5v-2h-5Zm-6-3v2h5v-2h-5Zm6 2h5v-2h-5v2Z"/><path fill="#000" d="M16 6a1 1 0 0 1 1 1v4h-1V7H5v14h5v1H5a1 1 0 0 1-1-1V7a1 1 0 0 1 1-1h11Z"/><path fill="#000" d="M10 19H7v-1h3v1Zm0-3H7v-1h3v1Zm0-3H7v-1h3v1Zm10.5-7A1.5 1.5 0 0 1 22 7.5v1.793l1.146-1.147.707.708-2.353 2.353-2.354-2.353.707-.708L21 9.293V7.5a.5.5 0 0 0-.5-.5H18V6h2.5ZM14 10H7V9h7v1Z"/></svg>