<svg xmlns="http://www.w3.org/2000/svg" width="24" height="24" fill="none" viewBox="0 0 24 24">
  <g class="icon-transition-gallery">
    <path fill="#444" fill-rule="evenodd" d="M20.845 3.9a1.25 1.25 0 0 1 1.405 1.24v13.72a1.25 1.25 0 0 1-1.553 1.213l-9-2.25a1.25 1.25 0 0 1-.947-1.213V7.39c0-.573.39-1.073.947-1.212l9-2.25.148-.028ZM12.25 7.585v8.83l8.5 2.124V5.46l-8.5 2.125Zm-4.493-.617A1.25 1.25 0 0 1 9.25 8.194v7.613a1.25 1.25 0 0 1-1.646 1.185l-5-1.667a1.25 1.25 0 0 1-.854-1.185V9.86c0-.537.344-1.015.854-1.185l5-1.667.153-.04ZM3.25 10.04v3.92l4.5 1.5V8.54l-4.5 1.5ZM16.5 8.75c1.666 0 2.75 1.62 2.75 3.25s-1.084 3.25-2.75 3.25-2.75-1.62-2.75-3.25 1.084-3.25 2.75-3.25Zm0 1.5c-.543 0-1.25.619-1.25 1.75 0 1.132.707 1.75 1.25 1.75s1.25-.618 1.25-1.75c0-1.131-.707-1.75-1.25-1.75Z" class="icon-stroke-gray-primary" clip-rule="evenodd"/>
    <path fill="#BE6650" fill-rule="evenodd" d="M6.342 9.72a.5.5 0 0 1 .658.474v3.612a.5.5 0 0 1-.658.475l-2-.667A.5.5 0 0 1 4 13.14v-2.279a.5.5 0 0 1 .342-.475l2-.667Z" class="icon-fill-red-brend-transition-primary" clip-rule="evenodd" opacity=".8"/>
  </g>
</svg>
