<svg xmlns="http://www.w3.org/2000/svg" width="24" height="24" fill="none" viewBox="0 0 24 24">
  <g class="icon-transition-split">
    <path fill="#BE6650" d="M20 17.546a.25.25 0 0 1-.25.25h-2.5a.25.25 0 0 1-.25-.25v-2.839a1.497 1.497 0 0 0 1.56-.35l1.44-1.44v4.629Zm-.25-12.75a.25.25 0 0 1 .25.25v4.629l-1.44-1.44A1.499 1.499 0 0 0 17 7.883V5.046a.25.25 0 0 1 .25-.25h2.5Zm-14.31 9.56a1.497 1.497 0 0 0 1.56.351v2.839a.25.25 0 0 1-.25.25h-2.5a.25.25 0 0 1-.25-.25v-4.629l1.44 1.44Zm1.31-9.56a.25.25 0 0 1 .25.25v2.837a1.499 1.499 0 0 0-1.56.352L4 9.675v-4.63a.25.25 0 0 1 .25-.25h2.5Z" class="icon-fill-red-brend-primary" opacity=".3"/>
    <path fill="#BE6650" d="M16.088 12.796A1.498 1.498 0 0 0 17 14.708v2.838a.25.25 0 0 1-.25.25h-2.5a.25.25 0 0 1-.25-.25v-4.75h2.088Zm.662-8a.25.25 0 0 1 .25.25v2.837a1.492 1.492 0 0 0-.912 1.913H14v-4.75a.25.25 0 0 1 .25-.25h2.5ZM10 17.546a.25.25 0 0 1-.25.25h-2.5a.25.25 0 0 1-.25-.25v-2.839a1.49 1.49 0 0 0 .912-1.911H10v4.75Zm-.25-12.75a.25.25 0 0 1 .25.25v4.75H7.912A1.499 1.499 0 0 0 7 7.883V5.046a.25.25 0 0 1 .25-.25h2.5Z" class="icon-fill-red-brend-primary" opacity=".5"/>
    <path fill="#BE6650" d="M13.75 4.796a.25.25 0 0 1 .25.25v4.75h-.5a1.5 1.5 0 0 0 0 3h.5v4.75a.25.25 0 0 1-.25.25h-3.5a.25.25 0 0 1-.25-.25v-4.75h.5a1.5 1.5 0 0 0 0-3H10v-4.75a.25.25 0 0 1 .25-.25h3.5Z" class="icon-fill-red-brend-primary" opacity=".8"/>
    <g class="icon-stroke-gray-primary">
      <path fill="#444" fill-rule="evenodd" d="M1.75 4.296c0-.967.784-1.75 1.75-1.75h17c.966 0 1.75.783 1.75 1.75v14a1.75 1.75 0 0 1-1.75 1.75h-17a1.75 1.75 0 0 1-1.75-1.75v-14Zm1.5 14c0 .138.112.25.25.25h17a.25.25 0 0 0 .25-.25v-14a.25.25 0 0 0-.25-.25h-17a.25.25 0 0 0-.25.25v14Z" clip-rule="evenodd"/>
      <path fill="#444" d="M17.854 13.65a.5.5 0 0 1-.707-.707l1.146-1.147H13.5a.5.5 0 0 1 0-1h4.793L17.147 9.65a.5.5 0 0 1 .707-.708l1.823 1.824.052.056a.75.75 0 0 1-.052 1.004l-1.823 1.823Zm-11 0a.5.5 0 0 1-.708 0l-1.823-1.824-.052-.056a.75.75 0 0 1 .052-1.004l1.823-1.824a.5.5 0 0 1 .708.708l-1.147 1.146H10.5a.5.5 0 0 1 0 1H5.707l1.147 1.147a.5.5 0 0 1 0 .707Z"/>
    </g>
  </g>
</svg>
