<svg xmlns="http://www.w3.org/2000/svg" width="24" height="24" fill="none" viewBox="0 0 24 24">
  <g class="icon-transition-wipe">
    <path fill="#FBE4DE" d="M19.75 12.496a.25.25 0 0 1 .25.25v5.5a.25.25 0 0 1-.25.25H4.25a.25.25 0 0 1-.25-.25v-5.5a.25.25 0 0 1 .25-.25H11v3.5a1.5 1.5 0 0 0 3 0v-3.5h5.75Z" class="icon-fill-red-brend-transition-secondary"/>
    <path fill="#444" d="M20.5 3.246c.966 0 1.75.783 1.75 1.75v14a1.75 1.75 0 0 1-1.75 1.75h-17a1.75 1.75 0 0 1-1.75-1.75v-14c0-.967.784-1.75 1.75-1.75h17Zm-17 1.5a.25.25 0 0 0-.25.25v5.5h4.837a1.503 1.503 0 0 0 0 1H3.25v7.5c0 .138.112.25.25.25h17a.25.25 0 0 0 .25-.25v-7.5h-3.838a1.502 1.502 0 0 0 0-1h3.838v-5.5a.25.25 0 0 0-.25-.25h-17Zm8.526 3.021a.75.75 0 0 1 1.004.052l2.824 2.823a.5.5 0 0 1-.707.707L13 9.203v6.793a.5.5 0 0 1-1 0V9.203l-2.146 2.146a.5.5 0 0 1-.708-.707L11.97 7.82l.056-.052Z" class="icon-stroke-gray-primary"/>
  </g>
</svg>
