<svg xmlns="http://www.w3.org/2000/svg" width="24" height="24" fill="none" viewBox="0 0 24 24">
  <g class="icon-transition-uncover">
    <path fill="#FBE4DE" d="M19.75 4.796a.25.25 0 0 1 .25.25v12.5a.25.25 0 0 1-.25.25h-2.5a.25.25 0 0 1-.25-.25v-12.5a.25.25 0 0 1 .25-.25h2.5Z" class="icon-fill-red-brend-secondary"/>
    <g class="icon-stroke-gray-primary">
      <path fill="#444" fill-rule="evenodd" d="M1.75 4.296c0-.967.784-1.75 1.75-1.75h17c.966 0 1.75.783 1.75 1.75v14a1.75 1.75 0 0 1-1.75 1.75h-17a1.75 1.75 0 0 1-1.75-1.75v-14Zm1.5 14c0 .138.112.25.25.25h17a.25.25 0 0 0 .25-.25v-14a.25.25 0 0 0-.25-.25h-17a.25.25 0 0 0-.25.25v14Z" clip-rule="evenodd"/>
      <path fill="#444" d="M8.146 7.942a.5.5 0 1 1 .708.707l-2.147 2.147H13.5a.5.5 0 1 1 0 1H6.707l2.147 2.146.064.079a.5.5 0 0 1-.693.693l-.079-.065-3-3-.062-.076a.5.5 0 0 1 0-.555l.062-.076 3-3ZM16 19.296h-1v-16h1v16Z"/>
    </g>
  </g>
</svg>
