<svg xmlns="http://www.w3.org/2000/svg" width="24" height="24" fill="none" viewBox="0 0 24 24">
  <g class="icon-transition-randombars">
    <path fill="#444" d="M20.5 3.25c.966 0 1.75.784 1.75 1.75v14a1.75 1.75 0 0 1-1.75 1.75h-17A1.75 1.75 0 0 1 1.75 19V5c0-.966.784-1.75 1.75-1.75h17Zm-17 1.5a.25.25 0 0 0-.25.25v14c0 .138.112.25.25.25h17a.25.25 0 0 0 .25-.25V5a.25.25 0 0 0-.25-.25h-17Z" class="icon-stroke-gray-primary"/>
    <path fill="#BE6650" d="M5.75 19.25h-1V4.75h1v14.5Zm4.5 0h-2V4.75h2v14.5Zm3.5 0h-2V4.75h2v14.5Zm2.5 0h-1V4.75h1v14.5Zm3.5 0h-1V4.75h1v14.5Z" class="icon-fill-red-brend-transition-primary" opacity=".8"/>
  </g>
</svg>
