<svg xmlns="http://www.w3.org/2000/svg" width="24" height="24" fill="none" viewBox="0 0 24 24">
  <g class="icon-transition-wipe">
    <path fill="#FBE4DE" d="M11 11.796v3.5a1.5 1.5 0 0 0 3 0v-3.5h5.75a.25.25 0 0 1 .25.25v5.5a.25.25 0 0 1-.25.25H4.25a.25.25 0 0 1-.25-.25v-5.5a.25.25 0 0 1 .25-.25H11Z" class="icon-fill-red-brend-secondary"/>
    <g class="icon-stroke-gray-primary">
      <path fill="#444" d="M12.026 7.067a.75.75 0 0 1 1.004.052l2.823 2.823a.5.5 0 0 1-.707.707L13 8.503v6.793a.5.5 0 0 1-1 0V8.503l-2.147 2.146a.5.5 0 1 1-.707-.707L11.97 7.12l.056-.052Z"/>
      <path fill="#444" fill-rule="evenodd" d="M1.75 4.296c0-.967.784-1.75 1.75-1.75h17c.966 0 1.75.783 1.75 1.75v14a1.75 1.75 0 0 1-1.75 1.75h-17a1.75 1.75 0 0 1-1.75-1.75v-14Zm1.5 14c0 .138.112.25.25.25h17a.25.25 0 0 0 .25-.25v-14a.25.25 0 0 0-.25-.25h-17a.25.25 0 0 0-.25.25v14Z" clip-rule="evenodd"/>
      <path fill="#444" d="M8.087 9.796a1.503 1.503 0 0 0 0 1H2.5v-1h5.587Zm13.413 1h-4.588a1.502 1.502 0 0 0 0-1H21.5v1Z"/>
    </g>
  </g>
</svg>
