<svg xmlns="http://www.w3.org/2000/svg" width="24" height="24" fill="none" viewBox="0 0 24 24">
  <g class="icon-transition-zoom">
    <path fill="#FBE4DE" d="M19.75 4.996a.25.25 0 0 1 .25.25v10.5a.25.25 0 0 1-.25.25H7.25a.25.25 0 0 1-.25-.25v-10.5a.25.25 0 0 1 .25-.25h12.5Z" class="icon-fill-red-brend-transition-secondary"/>
    <path fill="#444" d="M6.5 2.746a1.75 1.75 0 0 0-1.75 1.75v4.25H3.5a1.75 1.75 0 0 0-1.75 1.75v9c0 .966.784 1.75 1.75 1.75h11a1.75 1.75 0 0 0 1.75-1.75v-1.25h4.25a1.75 1.75 0 0 0 1.75-1.75v-12a1.75 1.75 0 0 0-1.75-1.75h-14Zm-1.75 13.75c0 .966.784 1.75 1.75 1.75h8.25v1.25a.25.25 0 0 1-.25.25h-11a.25.25 0 0 1-.25-.25v-9a.25.25 0 0 1 .25-.25h1.25v6.25ZM20.5 4.246a.25.25 0 0 1 .25.25v12a.25.25 0 0 1-.25.25h-14a.25.25 0 0 1-.25-.25v-12a.25.25 0 0 1 .25-.25h14Z" class="icon-stroke-gray-primary"/>
  </g>
</svg>
