<svg xmlns="http://www.w3.org/2000/svg" width="24" height="24" fill="none" viewBox="0 0 24 24">
  <g class="icon-transition-flip">
    <path fill="#444" fill-rule="evenodd" d="M11.5 15.75a.75.75 0 0 1 .75.75v3a.75.75 0 0 1-1.5 0v-3a.75.75 0 0 1 .75-.75Zm8.64-11.73a1.75 1.75 0 0 1 2.11 1.713v12.535a1.75 1.75 0 0 1-2.11 1.713l-5.794-1.221a.75.75 0 1 1 .308-1.468l5.794 1.22a.25.25 0 0 0 .302-.244V5.733a.25.25 0 0 0-.302-.244l-5.794 1.22a.75.75 0 1 1-.309-1.468L20.14 4.02ZM8.346 6.503a.75.75 0 1 1 .308 1.468L3.448 9.067a.25.25 0 0 0-.198.245v5.377c0 .118.083.22.198.245l5.206 1.095a.75.75 0 0 1-.308 1.468L3.14 16.402a1.751 1.751 0 0 1-1.39-1.713V9.312c0-.828.58-1.543 1.39-1.713l5.206-1.096ZM11.5 9.75a.75.75 0 0 1 .75.75v3a.75.75 0 0 1-1.5 0v-3a.75.75 0 0 1 .75-.75Zm0-6a.75.75 0 0 1 .75.75v3a.75.75 0 0 1-1.5 0v-3a.75.75 0 0 1 .75-.75Z" class="icon-stroke-gray-primary" clip-rule="evenodd"/>
    <path fill="#BE6650" fill-rule="evenodd" d="M19.418 7.097A.5.5 0 0 1 20 7.59v8.82a.5.5 0 0 1-.582.493l-5-.833a.5.5 0 0 1-.418-.493V8.423a.5.5 0 0 1 .418-.493l5-.833ZM8.402 9.12A.5.5 0 0 1 9 9.61v4.78a.5.5 0 0 1-.598.49l-4-.8A.5.5 0 0 1 4 13.59v-3.18a.5.5 0 0 1 .402-.49l4-.8Z" class="icon-fill-red-brend-transition-primary" clip-rule="evenodd" opacity=".8"/>
  </g>
</svg>
