<svg xmlns="http://www.w3.org/2000/svg" width="24" height="24" fill="none" viewBox="0 0 24 24">
  <g class="icon-transition-push">
    <g class="icon-fill-red-brend-primary" opacity=".3">
      <path fill="#BE6650" d="M9.75 4.796a.25.25 0 0 1 .25.25v2.629l-2.56 2.56-.067.073-.062.076-.06.08-.057.094a1.5 1.5 0 0 0-.19.627l-.004.11c0 .262.068.516.194.74l.058.093a.995.995 0 0 0 .059.08l.062.076c.02.025.043.05.066.072L10 14.917v2.629a.25.25 0 0 1-.25.25h-5.5a.25.25 0 0 1-.25-.25v-12.5a.25.25 0 0 1 .25-.25h5.5Z"/>
      <path fill="#BE6650" d="m10 10.503-.293.293H10v1h-.293l.293.293v1.414l-1.854-1.854-.062-.076a.5.5 0 0 1 0-.554l.062-.077L10 9.09v1.414Z"/>
    </g>
    <g class="icon-fill-red-brend-primary" opacity=".5">
      <path fill="#BE6650" d="M16 17.546a.25.25 0 0 1-.25.25h-5.5a.25.25 0 0 1-.25-.25v-2.629l.44.44.07.064.078.064.086.064a1.501 1.501 0 0 0 1.787-.102l.1-.09a1.5 1.5 0 0 0 .192-1.887l-.063-.086-.065-.078-.065-.07-.439-.44H16v4.75Z"/>
      <path fill="#BE6650" d="m11.854 13.942.064.079a.5.5 0 0 1-.693.693l-.079-.065L10 13.503v-1.414l1.854 1.853ZM16 10.796v1h-6v-1h6Zm-4.854-2.854a.5.5 0 0 1 .707.707L10 10.503V9.089l1.146-1.147Z"/>
      <path fill="#BE6650" d="M15.75 4.796a.25.25 0 0 1 .25.25v4.75h-3.879l.44-.44a1.5 1.5 0 0 0 0-2.12l-.115-.104a1.5 1.5 0 0 0-1.892 0l-.114.103-.44.44v-2.63a.25.25 0 0 1 .25-.25h5.5Z"/>
    </g>
    <g class="icon-fill-red-brend-primary" opacity=".8">
      <path fill="#BE6650" d="M19.75 4.796a.25.25 0 0 1 .25.25v12.5a.25.25 0 0 1-.25.25h-3.5a.25.25 0 0 1-.25-.25v-4.75h.5a1.5 1.5 0 0 0 1.492-1.347l.008-.153-.008-.153A1.5 1.5 0 0 0 16.5 9.796H16v-4.75a.25.25 0 0 1 .25-.25h3.5Z"/>
      <path fill="#BE6650" d="M16.5 10.796a.5.5 0 0 1 0 1H16v-1h.5Z"/>
    </g>
    <g class="icon-stroke-gray-primary">
      <path fill="#444" fill-rule="evenodd" d="M1.75 4.296c0-.967.784-1.75 1.75-1.75h17c.966 0 1.75.783 1.75 1.75v14a1.75 1.75 0 0 1-1.75 1.75h-17a1.75 1.75 0 0 1-1.75-1.75v-14Zm1.5 14c0 .138.112.25.25.25h17a.25.25 0 0 0 .25-.25v-14a.25.25 0 0 0-.25-.25h-17a.25.25 0 0 0-.25.25v14Z" clip-rule="evenodd"/>
      <path fill="#444" d="M11.146 7.942a.5.5 0 1 1 .707.707l-2.146 2.147H16.5a.5.5 0 1 1 0 1H9.707l2.146 2.146.065.079a.5.5 0 0 1-.693.693l-.079-.065-3-3-.062-.076a.5.5 0 0 1 0-.555l.062-.076 3-3Z"/>
    </g>
  </g>
</svg>
