<svg xmlns="http://www.w3.org/2000/svg" width="24" height="24" fill="none" viewBox="0 0 24 24">
  <g class="icon-transition-blinds">
    <path fill="#BE6650" fill-rule="evenodd" d="M4 7.855a.5.5 0 0 1 1 0v8.414a.5.5 0 0 1-1 0V7.855Zm7.5 0a.5.5 0 0 1 1 0v8.414a.5.5 0 0 1-1 0V7.855Zm7.5 0a.5.5 0 0 1 1 0v8.413a.501.501 0 1 1-1 0V7.855Z" class="icon-fill-red-brend-transition-primary" clip-rule="evenodd" opacity=".8"/>
    <path fill="#444" fill-rule="evenodd" d="M1.5 4.565c0-.968 1.038-1.546 1.846-1.101l.158.102 3.5 2.645c.312.236.496.605.496.997v9.703c0 .392-.184.761-.496.997l-3.5 2.645c-.824.622-2.004.034-2.004-.998V4.565ZM9 4.438c0-.968 1.037-1.546 1.846-1.101l.158.103 3.5 2.644c.312.236.496.606.496.997v9.703c0 .392-.184.761-.496.997l-3.5 2.645C10.18 21.048 9 20.46 9 19.428V4.438Zm7.5-.001c0-.968 1.038-1.545 1.846-1.101l.158.103 3.5 2.644c.312.236.496.606.496.997v9.703c0 .392-.184.761-.496.997l-3.5 2.645c-.824.622-2.004.034-2.004-.998V4.437ZM3 19.053l3-2.267V7.332L3 5.066v13.987Zm7.5-.127 3-2.267V7.205l-3-2.266v13.987Zm7.5-.001 3-2.267V7.204l-3-2.266v13.987Z" class="icon-stroke-gray-primary" clip-rule="evenodd"/>
  </g>
</svg>
