<svg xmlns="http://www.w3.org/2000/svg" width="24" height="24" fill="none" viewBox="0 0 24 24">
  <g class="icon-transition-uncover">
    <path fill="#444" d="M20.5 3.246c.966 0 1.75.783 1.75 1.75v14a1.75 1.75 0 0 1-1.75 1.75h-17a1.75 1.75 0 0 1-1.75-1.75v-14c0-.967.784-1.75 1.75-1.75h17Zm-4.5 16h4.5a.25.25 0 0 0 .25-.25v-14a.25.25 0 0 0-.25-.25H16v14.5ZM3.5 4.746a.25.25 0 0 0-.25.25v14c0 .138.112.25.25.25H15v-14.5H3.5Zm4.646 3.896a.5.5 0 1 1 .708.707l-2.147 2.147H13.5a.5.5 0 0 1 0 1H6.707l2.147 2.146.064.079a.5.5 0 0 1-.693.693l-.079-.065-3-3-.062-.076a.5.5 0 0 1 0-.554l.062-.077 3-3Z" class="icon-stroke-gray-primary"/>
    <path fill="#FBE4DE" d="M19.75 5.496a.25.25 0 0 1 .25.25v12.5a.25.25 0 0 1-.25.25h-2.5a.25.25 0 0 1-.25-.25v-12.5a.25.25 0 0 1 .25-.25h2.5Z" class="icon-fill-red-brend-transition-secondary"/>
  </g>
</svg>
