<svg xmlns="http://www.w3.org/2000/svg" width="24" height="24" fill="none" viewBox="0 0 24 24">
  <g class="icon-transition-none">
    <path fill="#FBE4DE" d="M19.75 5.5a.25.25 0 0 1 .25.25v12.5a.25.25 0 0 1-.25.25H4.25a.25.25 0 0 1-.25-.25V5.75a.25.25 0 0 1 .25-.25h15.5Z" class="icon-fill-red-brend-transition-secondary"/>
    <path fill="#444" d="M20.311 3.25c.465 0 .918.133 1.274.385.354.25.664.667.664 1.207v14.317c0 .54-.31.956-.664 1.207a2.21 2.21 0 0 1-1.274.385H3.688a2.21 2.21 0 0 1-1.274-.385c-.354-.251-.664-.667-.664-1.207V4.842c0-.54.31-.956.664-1.207a2.21 2.21 0 0 1 1.273-.385h16.624ZM3.688 4.75a.721.721 0 0 0-.406.108.364.364 0 0 0-.032.029v14.227c.007.007.016.017.032.029a.72.72 0 0 0 .405.108h16.624a.73.73 0 0 0 .407-.108c.015-.012.024-.022.031-.029V4.887c-.007-.007-.016-.018-.031-.029a.724.724 0 0 0-.407-.108H3.688Z" class="icon-stroke-gray-primary"/>
  </g>
</svg>
