<svg xmlns="http://www.w3.org/2000/svg" width="24" height="24" fill="none" viewBox="0 0 24 24">
  <g class="icon-collaboration">
    <path fill="#444" d="M16.954 18.584a.75.75 0 0 0 0 1.5v-1.5Zm-.143-5a.75.75 0 0 0 0 1.5v-1.5Zm-2.57-2.334a.75.75 0 0 0 0 1.5v-1.5Zm-.241-7a.75.75 0 0 0 0 1.5v-1.5ZM3.188 19.333v.75h10v-1.5h-10v.75Zm11-1h.75v-1h-1.5v1h.75Zm-3-4v-.75h-6v1.5h6v-.75Zm-9 3h-.75v1h1.5v-1h-.75Zm3-3v-.75a3.75 3.75 0 0 0-3.75 3.75h1.5a2.25 2.25 0 0 1 2.25-2.25v-.75Zm9 3h.75a3.75 3.75 0 0 0-3.75-3.75v1.5a2.25 2.25 0 0 1 2.25 2.25h.75Zm-1 2v.75a1.75 1.75 0 0 0 1.75-1.75h-1.5a.25.25 0 0 1-.25.25v.75Zm-10 0v-.75a.25.25 0 0 1-.25-.25h-1.5c0 .966.784 1.75 1.75 1.75v-.75Zm8.523-11.167h-.75a2.75 2.75 0 0 1-2.75 2.75v1.5a4.25 4.25 0 0 0 4.25-4.25h-.75Zm-3.5 3.5v-.75a2.75 2.75 0 0 1-2.75-2.75h-1.5a4.25 4.25 0 0 0 4.25 4.25v-.75Zm-3.5-3.5h.75a2.75 2.75 0 0 1 2.75-2.75v-1.5a4.25 4.25 0 0 0-4.25 4.25h.75Zm3.5-3.5v.75a2.75 2.75 0 0 1 2.75 2.75h1.5a4.25 4.25 0 0 0-4.25-4.25v.75Zm8.743 14.668v.75h3.857v-1.5h-3.857v.75Zm4.857-1h.75v-1h-1.5v1h.75Zm-3-4v-.75h-2v1.5h2v-.75Zm3 3h.75a3.75 3.75 0 0 0-3.75-3.75v1.5a2.25 2.25 0 0 1 2.25 2.25h.75Zm-1 2v.75a1.75 1.75 0 0 0 1.75-1.75h-1.5a.25.25 0 0 1-.25.25v.75ZM18 8.444h-.75c0 1.511-1.307 2.806-3.008 2.806v1.5c2.45 0 4.508-1.89 4.508-4.307H18ZM14 5v.75c1.797 0 3.25 1.267 3.25 2.693h1.5c0-2.502-2.396-4.193-4.75-4.193V5Z" class="icon-stroke-gray-primary"/>
  </g>
</svg>
