<svg xmlns="http://www.w3.org/2000/svg" width="64" height="64" fill="none" viewBox="0 0 64 64">
  <g class="icon-numbers-capital-letter-dot">
    <path fill="#444" d="M21 13h35v1H21v-1Zm0 18h35v1H21v-1Zm0 18h35v1H21v-1Z" class="icon-fill-gray-primary" opacity=".3"/>
    <path fill="#444" d="M11.79 18h1.015l-2.857-7.75h-.956L6.134 18H7.15l.78-2.218h3.082L11.79 18Zm-2.336-6.574h.032l1.24 3.534H8.214l1.24-3.534ZM9.68 36c1.648 0 2.626-.811 2.626-2.175 0-1.032-.677-1.773-1.73-1.907v-.043c.747-.134 1.338-.886 1.338-1.692 0-1.16-.897-1.933-2.224-1.933H6.752V36h2.927Zm-1.961-6.896h1.75c.94 0 1.467.424 1.467 1.192 0 .838-.623 1.294-1.767 1.294h-1.45v-2.486Zm0 6.042v-2.723h1.724c1.235 0 1.869.456 1.869 1.353s-.612 1.37-1.778 1.37H7.72Zm2.223 17.983c-2.137 0-3.49-1.552-3.49-4.007 0-2.433 1.369-4.001 3.49-4.001 1.687 0 2.97 1.026 3.218 2.572h-.978c-.247-1.015-1.133-1.68-2.24-1.68-1.514 0-2.497 1.224-2.497 3.11 0 1.9.972 3.114 2.503 3.114 1.138 0 1.955-.547 2.234-1.493h.978c-.355 1.53-1.504 2.385-3.218 2.385ZM15 17h1v1h-1v-1Zm0 18h1v1h-1v-1Zm0 17h1v1h-1v-1Z" class="icon-fill-gray-primary"/>
  </g>
</svg>
