<svg xmlns="http://www.w3.org/2000/svg" width="28" height="28" viewBox="0 0 28 28" fill="currentColor">
    <path d="M5 24H4v-1h1zm2 0H6v-1h1zm2 0H8v-1h1zm2 0h-1v-1h1zm2 0h-1v-1h1zm2 0h-1v-1h1zm2 0h-1v-1h1zm2 0h-1v-1h1zm2 0h-1v-1h1zm2 0h-1v-1h1zM5 22H4v-1h1zm2 0H6v-1h1zm2 0H8v-1h1zm2 0h-1v-1h1zm2 0h-1v-1h1zm2 0h-1v-1h1zm2 0h-1v-1h1zm2 0h-1v-1h1zm2 0h-1v-1h1zm2 0h-1v-1h1zM5 20H4v-1h1zm2 0H6v-1h1zm6 0h-1v-1h1zm2 0h-1v-1h1zm6 0h-1v-1h1zm2 0h-1v-1h1zM5 18H4v-1h1zm2 0H6v-1h1zm6 0h-1v-1h1zm2 0h-1v-1h1zm6 0h-1v-1h1zm2 0h-1v-1h1zM5 16H4v-1h1zm2 0H6v-1h1zm2 0H8v-1h1zm2 0h-1v-1h1zm2 0h-1v-1h1zm2 0h-1v-1h1zm2 0h-1v-1h1zm2 0h-1v-1h1zm2 0h-1v-1h1zm2 0h-1v-1h1zM5 14H4v-1h1zm2 0H6v-1h1zm2 0H8v-1h1zm2 0h-1v-1h1zm2 0h-1v-1h1zm2 0h-1v-1h1zm2 0h-1v-1h1zm2 0h-1v-1h1zm2 0h-1v-1h1zm2 0h-1v-1h1zM5 12H4v-1h1zm2 0H6v-1h1zm6 0h-1v-1h1zm2 0h-1v-1h1zm6 0h-1v-1h1zm2 0h-1v-1h1zM5 10H4V9h1zm2 0H6V9h1zm6 0h-1V9h1zm2 0h-1V9h1zm6 0h-1V9h1zm2 0h-1V9h1zM5 8H4V7h1zm2 0H6V7h1zm2 0H8V7h1zm2 0h-1V7h1zm2 0h-1V7h1zm2 0h-1V7h1zm2 0h-1V7h1zm2 0h-1V7h1zm2 0h-1V7h1zm2 0h-1V7h1zM5 6H4V5h1zm2 0H6V5h1zm2 0H8V5h1zm2 0h-1V5h1zm2 0h-1V5h1zm2 0h-1V5h1zm2 0h-1V5h1zm2 0h-1V5h1zm2 0h-1V5h1zm2 0h-1V5h1z" class="icon-fill-gray-secondary"/>
</svg>
