<svg xmlns="http://www.w3.org/2000/svg" width="28" height="28" viewBox="0 0 28 28" stroke="currentColor" stroke-linecap="round" stroke-linejoin="round" fill="none">
    <path d="M7 24H6v-1h1zm2 0H8v-1h1zm2 0h-1v-1h1zm2 0h-1v-1h1zm2 0h-1v-1h1zm2 0h-1v-1h1zm2 0h-1v-1h1zm2 0h-1v-1h1zm2-.5a.5.5 0 0 1-.5.5H22v-1h1zm0-1.5h-1v-1h1zm0-2h-1v-1h1zm0-2h-1v-1h1zm0-2h-1v-1h1zM7 15H6v-1h1zm2 0H8v-1h1zm2 0h-1v-1h1zm2 0h-1v-1h1zm2 0h-1v-1h1zm2 0h-1v-1h1zm2 0h-1v-1h1zm2 0h-1v-1h1zm2-1h-1v-1h1zm0-2h-1v-1h1zm0-2h-1V9h1zm0-2h-1V7h1zM7 6H6V5h1zm2 0H8V5h1zm2 0h-1V5h1zm2 0h-1V5h1zm2 0h-1V5h1zm2 0h-1V5h1zm2 0h-1V5h1zm2 0h-1V5h1zm1.5-1a.5.5 0 0 1 .5.5V6h-1V5z" fill="currentColor" class="icon-fill-gray-secondary" stroke="none"/>
    <path d="M4.5 5.5v18" class="icon-stroke-gray-primary"/>
</svg>
