<svg xmlns="http://www.w3.org/2000/svg" width="28" height="28" viewBox="0 0 28 28" stroke="currentColor" stroke-linecap="round" stroke-linejoin="round" fill="none">
    <path d="M14 22h-1v-1h1zm0-2h-1v-1h1zm0-2h-1v-1h1zm0-2h-1v-1h1zm-7-1H6v-1h1zm2 0H8v-1h1zm2 0h-1v-1h1zm2 0h-1v-1h1zm2 0h-1v-1h1zm2 0h-1v-1h1zm2 0h-1v-1h1zm2 0h-1v-1h1zm-7-1h-1v-1h1zm0-2h-1v-1h1zm0-2h-1V9h1zm0-2h-1V7h1z" fill="currentColor" class="icon-fill-gray-secondary" stroke="none"/>
    <path d="M22.5 23.5v-18h-18v18z" class="icon-stroke-gray-primary"/>
</svg>
