<svg xmlns="http://www.w3.org/2000/svg" width="28" height="28" viewBox="0 0 28 28" stroke="currentColor" stroke-linecap="round" stroke-linejoin="round" fill="none">
    <path d="M5 24h-.5a.5.5 0 0 1-.5-.5V23h1zm2 0H6v-1h1zm2 0H8v-1h1zm2 0h-1v-1h1zm2 0h-1v-1h1zm2 0h-1v-1h1zm2 0h-1v-1h1zm2 0h-1v-1h1zm2 0h-1v-1h1zM5 22H4v-1h1zm0-2H4v-1h1zm0-2H4v-1h1zm0-2H4v-1h1zm2-1H6v-1h1zm2 0H8v-1h1zm2 0h-1v-1h1zm2 0h-1v-1h1zm2 0h-1v-1h1zm2 0h-1v-1h1zm2 0h-1v-1h1zm2 0h-1v-1h1zM5 14H4v-1h1zm0-2H4v-1h1zm0-2H4V9h1zm0-2H4V7h1zm0-2H4v-.5a.5.5 0 0 1 .5-.5H5zm2 0H6V5h1zm2 0H8V5h1zm2 0h-1V5h1zm2 0h-1V5h1zm2 0h-1V5h1zm2 0h-1V5h1zm2 0h-1V5h1zm2 0h-1V5h1z" fill="currentColor" class="icon-fill-gray-secondary" stroke="none"/>
    <path d="M22.5 5.5v18" class="icon-stroke-gray-primary"/>
</svg>
