<svg xmlns="http://www.w3.org/2000/svg" width="20" height="20" fill="none"><path fill="#000" d="M11.862 3c.39 0 .701.098.937.293.235.19.353.398.353.623a.61.61 0 0 1-.63.624.572.572 0 0 1-.391-.136.425.425 0 0 1-.146-.322c0-.08.034-.178.1-.293.066-.12.1-.201.1-.241 0-.07-.023-.122-.069-.157a.481.481 0 0 0-.292-.076c-.322 0-.612.1-.868.301-.343.266-.65.68-.922 1.246-.138.296-.391 1.03-.76 2.201h1.13l-.14.496h-1.12l-.845 3.282c-.374 1.447-.75 2.566-1.13 3.357-.537 1.117-1.115 1.888-1.734 2.314-.471.325-.943.488-1.414.488a1.18 1.18 0 0 1-.783-.27.593.593 0 0 1-.238-.49c0-.16.066-.3.2-.42a.687.687 0 0 1 .476-.173c.138 0 .256.042.353.127a.39.39 0 0 1 .138.293c0 .11-.054.214-.161.309-.082.07-.123.122-.123.157 0 .045.018.08.054.106.046.035.118.052.215.052.22 0 .453-.068.699-.203.24-.135.456-.338.645-.608.19-.265.368-.65.537-1.156.072-.21.264-.905.576-2.081l1.336-5.085H6.61l.108-.496c.425 0 .721-.028.89-.083.17-.06.323-.17.461-.33.144-.165.328-.47.553-.916.302-.6.592-1.067.868-1.397.38-.446.776-.779 1.19-1 .42-.224.815-.337 1.183-.337Z"/><path fill="#000" d="M16.278 6.883c.22 0 .395.058.523.173a.535.535 0 0 1 .199.42c0 .19-.038.321-.115.391a.726.726 0 0 1-.491.188 1.01 1.01 0 0 1-.346-.068c-.24-.08-.403-.12-.484-.12-.123 0-.27.07-.438.21-.317.26-.696.764-1.137 1.51l.63 2.584c.097.395.18.633.246.713.067.075.133.113.2.113.107 0 .233-.058.376-.173.282-.23.522-.53.722-.901l.269.135a4.727 4.727 0 0 1-1.229 1.472c-.281.22-.52.33-.715.33-.286 0-.513-.157-.682-.472-.108-.196-.331-1.038-.67-2.525-.798 1.357-1.438 2.232-1.92 2.622-.311.25-.614.375-.905.375a.842.842 0 0 1-.561-.217.567.567 0 0 1-.184-.444.57.57 0 0 1 .583-.578c.164 0 .339.08.523.24.133.115.236.173.307.173.062 0 .14-.04.238-.12.24-.19.569-.6.983-1.231.415-.631.687-1.087.815-1.368a79.983 79.983 0 0 0-.515-1.93c-.118-.325-.272-.555-.46-.69-.19-.136-.47-.204-.838-.204-.118 0-.254.006-.407.016v-.27l2.05-.354c.252.26.441.52.57.781.091.18.242.654.452 1.42l.676-.992c.179-.24.397-.468.652-.683.256-.22.482-.37.676-.451a1.07 1.07 0 0 1 .407-.075Z"/></svg>