<svg xmlns="http://www.w3.org/2000/svg" width="20" height="20" fill="none"><path fill="#000" d="M18 17H2v-1h16v1Zm0-2H2v-1h16v1Zm0-2H2v-1h16v1Zm0-2H2v-1h16v1Zm0-2H2V8h16v1Zm0-2H2V6h16v1Zm0-2H2V4h16v1Zm0-2H2V2h16v1Z" opacity=".4"/><path fill="#000" d="M14.342 4c.805 0 .644.876.644 1.168 0 0-.242 2.726-.886 3.505-.483.583-1.369.389-1.771.389.402.097 1.61.682 1.61 2.336 0 1.85-.725 3.602-1.45 3.602-.724 0-2.012-2.337-2.012-4.575 0-.292-.08-.39-.08-.487.001.03.075 1.557-.403 1.557-.479 0-.404-1.528-.403-1.557 0 .098-.16.292-.16.487 0 2.239-1.289 4.574-2.014 4.575-.644 0-1.449-1.752-1.449-3.7 0-1.654 1.207-2.14 1.53-2.335-.242.097-1.128.292-1.61-.292C5.323 7.894 5 5.168 5 5.168c0-.195-.08-1.07.725-1.07 2.496 0 3.945 3.796 3.945 4.283 0 0 .001-.78.404-.78.402 0 .402.78.402.78 0-.487 1.45-4.381 3.865-4.381Z"/></svg>