<svg xmlns="http://www.w3.org/2000/svg" width="20" height="20" fill="none"><path fill="#000" d="M18 17H2v-1h16v1ZM14.343 4c.805 0 .644.876.644 1.168 0 0-.241 2.726-.885 3.505-.483.584-1.37.389-1.772.389.403.097 1.61.682 1.61 2.336 0 1.85-.725 3.602-1.45 3.602-.725-.001-2.013-2.337-2.013-4.575 0-.292-.08-.39-.08-.487.002.03.076 1.557-.403 1.557-.478 0-.404-1.527-.402-1.557 0 .098-.161.292-.161.487C9.43 12.664 8.143 15 7.418 15c-.644 0-1.45-1.752-1.45-3.7 0-1.653 1.207-2.14 1.53-2.335-.242.097-1.127.292-1.61-.292-.564-.779-.886-3.505-.886-3.505 0-.195-.08-1.07.725-1.07 2.496 0 3.946 3.796 3.946 4.283 0 0 0-.78.402-.78.403 0 .402.78.402.78 0-.487 1.45-4.381 3.866-4.381ZM18 3H2V2h16v1Z"/></svg>