<svg xmlns="http://www.w3.org/2000/svg" width="20" height="20" fill="none"><path fill="#000" d="M18 17H2v-1h16v1Zm0-2H2v-1h16v1Zm0-2H2v-1h16v1Zm0-2H2v-1h16v1Zm0-2H2V8h16v1Zm0-2H2V6h16v1Zm0-2H2V4h16v1Zm0-2H2V2h16v1Z" opacity=".4"/><path fill="#000" d="M8.93 13c-.142.372-.304.71-.473 1H6.505a5.807 5.807 0 0 1-.335-1h2.76Zm4.83 0c-.083.37-.193.71-.32 1h-1.988a6.778 6.778 0 0 1-.472-1h2.78ZM9.4 11a7.302 7.302 0 0 1-.163 1H6.004a7.26 7.26 0 0 1-.035-.7c0-.104.005-.204.015-.3H9.4Zm4.512 0c.016.125.029.258.029.398 0 .203-.011.404-.028.602h-3.241a7.294 7.294 0 0 1-.164-1h3.404Zm-3.578 0c-.056.275-.157.495-.339.495-.181 0-.283-.22-.34-.495h.68Zm3.284-2c-.46.16-.998.062-1.288.062.258.062.843.325 1.233.938h-3.155c-.005-.022-.01-.041-.01-.062V10h-.807l.001-.062a.19.19 0 0 1-.015.062H6.298c.35-.592.886-.86 1.139-1h6.181ZM9.175 7a7.3 7.3 0 0 1 .412 1h-4.01a9.68 9.68 0 0 1-.264-1h3.862Zm.9.602c.205 0 .305.2.355.398h-.71c.05-.198.151-.398.355-.398ZM14.71 7a7.73 7.73 0 0 1-.268 1h-3.88c.078-.258.213-.61.397-1h3.751ZM7.755 5c.318.297.598.644.84 1H5.124c-.079-.483-.12-.832-.12-.832 0-.036-.002-.095 0-.168h2.752Zm7.233.168s-.032.349-.101.832H11.51c.227-.353.49-.698.786-1h2.698c-.003.066-.006.124-.006.168Z"/></svg>