<svg xmlns="http://www.w3.org/2000/svg" width="24" height="24" fill="none" viewBox="0 0 24 24">
  <g class="draw-rtl">
    <path fill="#444" fill-rule="evenodd" d="M17.173 4.795c-2.161-.783-4.344-.668-6.38-.003l1.213 1.213c1.54-.374 3.117-.356 4.647.196 1.76.699 2.879 1.692 3.526 2.79.649 1.101.856 2.367.692 3.664-.333 2.621-2.178 5.295-4.73 6.687a.75.75 0 0 0 .718 1.316c2.947-1.608 5.103-4.685 5.5-7.813.2-1.578-.046-3.188-.888-4.616-.844-1.432-2.253-2.625-4.278-3.426l-.01-.004-.01-.004ZM3.776 9.897c-.732 1.073-1.181 2.184-1.368 3.277-.375 2.202.327 4.275 1.803 5.69 2.089 2.003 5.572 2.571 9.41.698l-.328-.673-.33-.674c-3.401 1.66-6.173 1.043-7.713-.434-1.107-1.061-1.658-2.629-1.363-4.355.133-.784.447-1.612.973-2.446L3.776 9.897Zm3.961-6.22a1.75 1.75 0 0 0-2.474 0L3.677 5.263a1.75 1.75 0 0 0 0 2.474l9.293 9.293c.14.14.331.22.53.22h3a.75.75 0 0 0 .75-.75v-3a.75.75 0 0 0-.22-.53L7.737 3.677ZM15.75 13.81v1.939h-1.94L7.56 9.5 9.5 7.56l6.25 6.25ZM6.323 4.737a.25.25 0 0 1 .354 0L8.439 6.5 6.5 8.44 4.738 6.676a.25.25 0 0 1 0-.354l1.586-1.586Z" class="icon-stroke-gray-primary" clip-rule="evenodd"/>
  </g>
</svg>
