<svg xmlns="http://www.w3.org/2000/svg" width="28" height="28" fill="none"><path fill="#000" d="M17.586 3a1 1 0 0 1 .707.293l4.414 4.414a1 1 0 0 1 .293.707V24a1 1 0 0 1-1 1H8a1 1 0 0 1-1-1v-3h1v3h14V9h-4a1 1 0 0 1-1-1V4H8v2H7V4a1 1 0 0 1 1-1h9.586ZM18 8h3.586L18 4.414V8Z"/><path fill="#000" d="m7.732 9.943.44-.44a2 2 0 0 1 2.828 0l2.586 2.586a2 2 0 0 1 0 2.828L9 19.503a2 2 0 0 1-2.828 0l-2.586-2.586a2 2 0 0 1 0-2.828l3.44-3.44-2.294-2.292.707-.707 2.293 2.293Zm2.56.267a1 1 0 0 0-1.413 0l-.44.44 2 2-.707.707-2-2-3.44 3.44-.068.075a1 1 0 0 0 0 1.262l.069.076 2.586 2.586.075.068c.367.3.896.3 1.263 0l.076-.068 4.586-4.586a1 1 0 0 0 .068-1.339l-.068-.075-2.586-2.586Zm4.294 5.793c.01.011 1.5 1.674 1.5 2.5a1.5 1.5 0 0 1-3 0c0-.828 1.5-2.5 1.5-2.5Z"/></svg>