<svg xmlns="http://www.w3.org/2000/svg" width="28" height="28" fill="none"><path fill="#000" d="M12.286 2.506c.274.034.507.214.68.38.194.185.406.442.64.766l.002.004c.848 1.199.853 2.762.49 4.32a13.568 13.568 0 0 1-.546 1.748c.213.827.442 1.675.674 2.506l.004-.004c.422-.342.961-.599 1.492-.466l.01.002.012.003c.446.134.693.484.838.792.133.284.214.61.277.864l.014.052c.024.098.045.184.067.26.011-.029.023-.06.035-.096.061-.177.113-.384.175-.627l.078-.305c.095-.361.215-.77.389-1.145.174-.374.42-.752.789-1.02l.007-.005c.179-.125.432-.239.718-.166.28.072.433.284.512.429.082.15.136.324.175.47.028.105.054.222.078.329l.029.122c.028.121.054.223.082.306l.053-.048a.5.5 0 0 1 .679.735c-.186.172-.396.32-.63.375a.778.778 0 0 1-.72-.184 1.23 1.23 0 0 1-.303-.483 3.91 3.91 0 0 1-.136-.474l-.033-.148c-.023-.098-.043-.187-.066-.274l-.01-.038a1.9 1.9 0 0 0-.318.496 5.9 5.9 0 0 0-.327.978l-.066.258c-.066.258-.134.524-.208.743-.052.15-.115.307-.2.445a1.008 1.008 0 0 1-.388.38.903.903 0 0 1-.616.114.81.81 0 0 1-.501-.345 1.628 1.628 0 0 1-.199-.42 6.106 6.106 0 0 1-.116-.42l-.005-.019c-.07-.282-.13-.522-.22-.714-.084-.178-.157-.235-.21-.255-.079-.013-.286.016-.607.277a2.872 2.872 0 0 0-.326.313c.659 2.296 1.3 4.348 1.64 5.37.626 1.875.85 3.135.752 3.893-.05.378-.202.777-.587.96-.373.179-.762.055-1.037-.092-.567-.303-1.183-.978-1.694-1.756-.52-.792-.979-1.765-1.195-2.735-.48-2.027-.082-3.875.606-5.183.128-.242.267-.468.413-.675-.176-.62-.352-1.255-.523-1.888a27.57 27.57 0 0 1-.785 1.514 40.873 40.873 0 0 1-2.498 3.9 42.773 42.773 0 0 1-1.145 1.52c-.03.037-.053.066-.07.085l-.018.023-.006.008a.5.5 0 0 1-.774-.633l.001-.001.004-.005.016-.02.065-.082c.057-.072.142-.178.248-.315.213-.275.514-.673.867-1.163a39.878 39.878 0 0 0 2.437-3.803 23.32 23.32 0 0 0 1.25-2.58c-.118-.467-.232-.928-.338-1.374-.46-1.936-.79-3.684-.76-4.644.008-.237.038-.492.135-.699a.79.79 0 0 1 .273-.327.694.694 0 0 1 .475-.11Zm1.527 11.917c-.53 1.104-.824 2.63-.427 4.306l.002.007c.184.828.586 1.691 1.056 2.407.48.731.984 1.239 1.33 1.423.055.03.095.046.122.054a.801.801 0 0 0 .037-.17c.067-.508-.083-1.573-.708-3.447-.302-.907-.836-2.612-1.412-4.58ZM12.401 3.74c-.008.797.264 2.305.693 4.134l.03-.126c.339-1.451.27-2.662-.331-3.513a5.892 5.892 0 0 0-.392-.495Z"/><path fill="#000" d="M9.5 7a.5.5 0 0 1 0 1H3v12h6.5a.5.5 0 0 1 0 1h-7a.5.5 0 0 1-.5-.5v-13a.5.5 0 0 1 .5-.5h7Zm16 0a.5.5 0 0 1 .5.5v13a.5.5 0 0 1-.5.5h-6a.5.5 0 0 1 0-1H25V8h-7.5a.5.5 0 0 1 0-1h8Z"/></svg>