<svg xmlns="http://www.w3.org/2000/svg" width="28" height="28" fill="none"><path fill="#000" d="M8 14.5c0 .327.02.692 0 1-.015.308.01.685 0 .855l.216-.073c.22-.361.537-.667.952-.916.415-.249.945-.373 1.59-.373 1.005 0 1.807.349 2.402 1.047.6.693.9 1.727.9 3.099 0 .903-.136 1.665-.41 2.285-.273.62-.659 1.089-1.157 1.406-.498.317-1.086.476-1.764.476-.635 0-1.158-.118-1.568-.352a2.746 2.746 0 0 1-.937-.871h-.096L8 23.031H7V12h1v2.5Zm2.56 1.51c-.581 0-1.042.116-1.384.345-.342.225-.59.567-.74 1.026-.147.454-.22 1.03-.22 1.728v.066c0 1.01.169 1.785.506 2.322.337.532.95.798 1.838.798.747 0 1.306-.274 1.677-.82.376-.547.564-1.329.564-2.344 0-1.035-.186-1.814-.557-2.336-.366-.523-.928-.784-1.684-.784Zm8.958-1.025c.4 0 .786.042 1.157.125.375.079.683.178.923.3l-.367 1.019a6.301 6.301 0 0 0-.85-.264 3.753 3.753 0 0 0-.893-.117c-.556 0-1.02.12-1.391.358-.367.24-.643.591-.828 1.055-.181.464-.271 1.035-.271 1.714 0 .65.088 1.204.264 1.663.18.459.446.81.798 1.055.356.239.8.358 1.333.358.424 0 .808-.044 1.15-.132.342-.093.652-.2.93-.322v1.084a3.767 3.767 0 0 1-.9.315c-.328.073-.719.11-1.173.11-.722 0-1.36-.149-1.912-.447-.551-.297-.981-.752-1.289-1.362-.307-.61-.46-1.38-.46-2.308 0-.971.16-1.764.483-2.38.327-.62.776-1.079 1.347-1.376.572-.298 1.221-.448 1.949-.448ZM14.096 4c.957 0 1.668.215 2.131.645.464.43.696 1.116.696 2.058v5.347h-.886L16 11c-.225.293-.715.513-.959.713a2.614 2.614 0 0 1-.85.446c-.317.098-.708.147-1.171.147-.489 0-.923-.085-1.304-.256a2.031 2.031 0 0 1-.894-.777c-.214-.346-.322-.786-.322-1.318 0-.8.317-1.416.952-1.846.635-.43 1.602-.664 2.9-.703l1.384-.058v-.492c0-.693-.148-1.178-.446-1.457-.298-.278-.718-.418-1.26-.418-.42 0-.82.062-1.2.184a8.174 8.174 0 0 0-1.085.432l-.374-.923a6.696 6.696 0 0 1 1.245-.476A5.442 5.442 0 0 1 14.096 4Zm.403 4.256c-1.001.039-1.707.202-2.117.49-.41.288-.615.696-.615 1.224 0 .458.14.798.418 1.017.278.22.646.33 1.105.33.713 0 1.297-.198 1.751-.593.454-.396.68-.989.68-1.78v-.74l-1.222.052ZM22 9l-4 .018V8h4v1Z"/></svg>