<svg xmlns="http://www.w3.org/2000/svg" width="28" height="28" fill="none"><path fill="#000" d="M25 24H3v-1h22v1Zm0-2H3v-1h22v1ZM7 20H3v-1h4v1ZM19.21 7c.967 0 .774 1.036.774 1.38-.003.037-.295 3.227-1.063 4.143-.58.69-1.642.46-2.125.46.483.115 1.932.805 1.933 2.76 0 2.186-.87 4.256-1.74 4.257-.87 0-2.416-2.761-2.416-5.407 0-.345-.096-.46-.096-.575 0 0 .096 1.84-.484 1.84s-.482-1.84-.482-1.84c0 .115-.193.345-.194.575 0 2.646-1.546 5.407-2.416 5.407-.773 0-1.739-2.071-1.739-4.372 0-1.956 1.45-2.53 1.836-2.76-.29.114-1.353.345-1.933-.345-.672-.915-1.057-4.104-1.062-4.142 0-.23-.097-1.266.87-1.266 2.994 0 4.734 4.486 4.734 5.062 0-.017.004-.92.483-.92s.483.903.483.92c0-.576 1.74-5.177 4.638-5.177ZM25 20h-4v-1h4v1ZM7 18H3v-1h4v1Zm18 0h-4v-1h4v1ZM7 16H3v-1h4v1Zm18 0h-4v-1h4v1ZM7 14H3v-1h4v1Zm18 0h-4v-1h4v1ZM7 12H3v-1h4v1Zm18 0h-4v-1h4v1ZM7 10H3V9h4v1Zm18 0h-4V9h4v1ZM7 8H3V7h4v1Zm18 0h-4V7h4v1Zm0-2H3V5h22v1Zm0-2H3V3h22v1Z"/></svg>