<svg xmlns="http://www.w3.org/2000/svg" width="28" height="28" fill="none"><path fill="#000" d="m8.854 22.146-.708.707L7 21.707V23.5a.5.5 0 0 0 .5.5H10v1H7.5A1.5 1.5 0 0 1 6 23.5v-1.793l-1.146 1.146-.708-.707L6.5 19.793l2.354 2.354ZM21 22h-7v-1h7v1Zm0-3h-7v-1h7v1Zm.354-7.646L16.5 16.206l-2.854-2.854.707-.707 2.147 2.147 4.146-4.146.707.707Z"/><path fill="#000" d="M23 9a1 1 0 0 1 1 1v14a1 1 0 0 1-1 1H12a1 1 0 0 1-1-1V10a1 1 0 0 1 1-1h11ZM12 24h11V10H12v14Z"/><path fill="#000" d="M16 3a1 1 0 0 1 1 1v4h-1V4H5v14h5v1H5a1 1 0 0 1-1-1V4a1 1 0 0 1 1-1h11Z"/><path fill="#000" d="M10 16H7v-1h3v1Zm0-3H7v-1h3v1Zm0-3H7V9h3v1Zm10.5-7A1.5 1.5 0 0 1 22 4.5v1.793l1.146-1.147.707.708L21.5 8.207l-2.354-2.353.707-.708L21 6.293V4.5a.5.5 0 0 0-.5-.5H18V3h2.5ZM14 7H7V6h7v1Z"/></svg>