<svg xmlns="http://www.w3.org/2000/svg" width="28" height="28" fill="none"><path fill="#000" d="M22 10h-1V4H5v20h16v-4h1v5H4V3h18v7Z"/><path fill="#000" d="M11 21H7v-1h4v1Zm14.311-7.374L17.938 21H15v-2.707l7.49-7.49 2.822 2.823ZM16 18.707V20h1.523l4.26-4.259-1.409-1.408L16 18.707Zm5.081-5.081 1.408 1.408 1.409-1.408-1.409-1.408-1.408 1.408ZM13 18H7v-1h6v1Zm3-3H7v-1h9v1Zm2.83-8.123L17.207 8.5l1.623 1.623-.707.707L16.5 9.207l-1.623 1.623-.707-.707L15.793 8.5 14.17 6.877l.707-.707L16.5 7.793l1.623-1.623.707.707Zm-6.758 0-3.45 3.451-2.024-2.023.707-.707L8.62 8.914l2.744-2.744.707.707Z"/></svg>