<svg xmlns="http://www.w3.org/2000/svg" width="20" height="20" fill="none"><path fill="#000" d="M15.5 9 12 11.5l-3.5 1L5 10l1-2 5-3.5L15.5 9Z" opacity=".4"/><path fill="#000" d="m8 5.49 2.713-1.9.344-.24 6.03 6.03-.123.306L16.439 11H18v1h-1.962l-2.268 5.672L7.892 15H4.707l-1.853 1.854-.708-.707L3.293 15H1.691L5.61 7.163l.104-.072L7 6.189V3h1v2.49Zm4.035 6.752c-.651.239-1.375.41-1.977.526-.422.08-.797.138-1.067.175l-.05.006-.347 1.272 4.636 2.107.826-2.065-2.02-2.02ZM3.31 14h4.31l.322-1.188c-.111-.047-.242-.1-.381-.164-.418-.188-.957-.455-1.354-.744-.376-.273-.779-.678-1.074-.997-.064-.07-.123-.137-.178-.199L3.31 14Zm12.27-4.358c-.18.184-.434.437-.732.713-.515.476-1.19 1.047-1.848 1.438l1.46 1.46 1.453-3.633-.16-.16-.173.182Zm-6.352 2.255c.191-.03.41-.066.641-.11a13.79 13.79 0 0 0 1.376-.335l-1.49-1.49-.527 1.934Zm-3.29-1.593c.272.288.586.596.856.792.31.225.77.458 1.177.641.082.038.163.07.236.1l.592-2.169-2.861.636Zm4.133-1.44 2.194 2.194.005-.002c.614-.317 1.324-.902 1.899-1.435.282-.262.524-.502.695-.678.076-.077.137-.143.182-.19l-3.71-3.71-1.265 3.821Zm-3.68-1.028-.756 1.51 3.48-.773 1.139-3.441L6.39 7.836Z"/></svg>