<svg xmlns="http://www.w3.org/2000/svg" width="20" height="20" fill="none"><path fill="#000" d="M14 13h3v1h-3v3.001h-1V14H9.999v-1H13v-3h1v3Z"/><path fill="#000" d="M9 5a7.98 7.98 0 0 1 6.293 3.065l.017.022c.095.122.187.248.275.376l.056.08c.1.149.196.301.286.457h-1.185A6.989 6.989 0 0 0 9 6a6.991 6.991 0 0 0-5.744 3A6.991 6.991 0 0 0 9 12v1c-2.556 0-4.83-1.2-6.295-3.066-.006-.008-.01-.015-.017-.022a8.033 8.033 0 0 1-.295-.405l-.02-.028-.027-.04A8.01 8.01 0 0 1 2.072 9c.09-.156.185-.308.285-.457l.056-.08A7.988 7.988 0 0 1 9 5Z"/><path fill="#000" d="M9 7a2 2 0 1 1 0 4 2 2 0 0 1 0-4Z"/></svg>