<svg xmlns="http://www.w3.org/2000/svg" width="20" height="20" fill="none"><path fill="#000" d="M7 4v9.293l1.146-1.146.708.707L6.5 15.207l-2.354-2.354.708-.707L6 13.293V4h1Zm6.003 6c.396 0 .691.018.885.052.196.032.37.1.523.205.155.105.283.245.386.42.102.173.154.368.154.585 0 .234-.064.45-.191.645a1.166 1.166 0 0 1-.513.442c.305.088.54.24.704.454.164.214.246.466.246.756a1.5 1.5 0 0 1-.16.666 1.336 1.336 0 0 1-.435.516 1.434 1.434 0 0 1-.676.236c-.169.018-.576.03-1.22.034H11V10h2.003Zm-.991 4.167h.936c.364 0 .595-.01.694-.031a.624.624 0 0 0 .366-.198.617.617 0 0 0 .143-.427.655.655 0 0 0-.109-.383.62.62 0 0 0-.318-.23c-.137-.047-.436-.07-.896-.07h-.816v1.339Zm0-2.174h.663c.393 0 .638-.006.734-.017.173-.02.31-.08.407-.178.1-.1.15-.231.15-.393a.54.54 0 0 0-.13-.376c-.083-.098-.21-.157-.379-.177-.1-.012-.389-.018-.864-.018h-.581v1.16Zm3.015-2.983h-1.1l-.438-1.137h-2.003l-.413 1.138H10L11.952 4h1.07l2.005 5.01Zm-3.23-1.982h1.368l-.69-1.859-.677 1.86Z"/></svg>