<svg xmlns="http://www.w3.org/2000/svg" width="20" height="20" fill="none"><path fill="#000" d="M6 16H3v-3h3v3Zm0-8H3V5h3v3Zm11 0h-3V5h3v3Z" opacity=".4"/><path fill="#000" d="M5 15H4v-1h1v1Zm0-4H4v-1h1v1Zm0-4H4V6h1v1Z"/><path fill="#000" d="M7 17H2V4h5v13Zm-4-1h3v-3H3v3Zm0-4h3V9H3v3Zm0-4h3V5H3v3Zm13 3h-1v-1h1v1Zm0-4h-1V6h1v1Z"/><path fill="#000" d="M18 17h-5V4h5v13Zm-4-1h3v-3h-3v3Zm0-4h3V9h-3v3Zm0-4h3V5h-3v3Zm-1.793 2.5-2.353 2.354-.708-.707L10.293 11H8v-1h2.293L9.146 8.854l.708-.708 2.353 2.354Z"/></svg>