<svg xmlns="http://www.w3.org/2000/svg" width="20" height="20" fill="none"><path fill="#000" d="M11 14.293V13h1v3H9v-1h1.293L4.146 8.854l.708-.708L11 14.293Zm4.496-6.63c.28.28.477.502.59.663a1.27 1.27 0 0 1 .201 1.085c-.05.195-.152.369-.305.522a1.16 1.16 0 0 1-.591.32c-.227.05-.453.035-.675-.049.153.279.212.552.177.82a1.208 1.208 0 0 1-.36.707c-.162.162-.357.28-.586.358-.225.077-.45.096-.672.057a1.435 1.435 0 0 1-.645-.311 17.056 17.056 0 0 1-.887-.839L10.537 9.79l3.543-3.543 1.416 1.416ZM11.85 9.91l.662.662c.257.258.429.414.512.469a.622.622 0 0 0 .399.118.617.617 0 0 0 .403-.2.655.655 0 0 0 .194-.349.618.618 0 0 0-.063-.386c-.063-.13-.258-.359-.583-.684l-.577-.578-.947.948Zm1.537-1.537.468.469c.278.278.456.447.532.507a.668.668 0 0 0 .414.162c.141 0 .27-.057.384-.171a.54.54 0 0 0 .173-.359c.01-.128-.038-.26-.142-.393a11.632 11.632 0 0 0-.599-.624l-.41-.41-.82.82ZM11.98 4.147 9.855 9.11l-.778-.778.496-1.114L8.157 5.8l-1.097.511-.76-.758 4.924-2.163.756.756ZM8.974 5.424l.966.966.827-1.803-1.793.837Z"/></svg>