<svg xmlns="http://www.w3.org/2000/svg" width="20" height="20" fill="none"><path fill="#000" d="M16 12h-1v-1.293l-6.146 6.146-.708-.707L14.293 10H13V9h3v3Zm-5.901-1.524-.779.778-1.114-.495-1.416 1.416.512 1.097-.759.76L4.38 9.108l.757-.756 4.962 2.124Zm-3.686.882.966-.967-1.803-.826.837 1.793ZM9.83 4.021c.184-.035.374-.027.57.024.195.05.369.152.522.305.166.166.273.363.321.592.05.227.034.452-.05.674.279-.153.552-.211.82-.176.267.036.503.155.708.36.16.16.28.356.357.584.077.226.096.45.058.672-.039.22-.143.435-.312.646-.106.132-.386.427-.839.886L10.78 9.794 7.236 6.252l1.416-1.417c.28-.28.502-.477.663-.59.161-.115.333-.19.515-.224Zm1.77 2.291a.619.619 0 0 0-.387.063c-.13.062-.358.257-.684.583l-.578.577.948.948.662-.663c.258-.258.415-.428.47-.512a.625.625 0 0 0 .118-.4.618.618 0 0 0-.2-.403.655.655 0 0 0-.35-.193ZM9.97 4.973c-.128-.01-.26.038-.393.143a11.82 11.82 0 0 0-.624.6l-.41.41.82.82.468-.47c.278-.278.447-.455.507-.531a.666.666 0 0 0 .162-.413.532.532 0 0 0-.17-.385.54.54 0 0 0-.36-.174Z"/></svg>