<svg xmlns="http://www.w3.org/2000/svg" width="20" height="20" fill="none"><path fill="#000" d="m11 17.293 1.146-1.146.707.707-2.353 2.353-2.354-2.354.708-.707L10 17.293V15h1v2.293ZM14 14H7V7h7v7Zm-6-1h2v-2H8v2Zm3 0h2v-2h-2v2Zm-3-3h2V8H8v2Zm3 0h2V8h-2v2ZM4.854 8.854 3.707 10H6v1H3.707l1.147 1.146-.708.707L1.793 10.5l2.353-2.354.708.708ZM19.207 10.5l-2.354 2.354-.707-.707L17.293 11H15v-1h2.293l-1.146-1.146.707-.708 2.353 2.354Zm-6.353-6.354-.707.708L11 3.707V6h-1V3.707L8.854 4.854l-.708-.708L10.5 1.793l2.354 2.353Z" opacity=".8"/></svg>