<svg xmlns="http://www.w3.org/2000/svg" width="20" height="20" fill="none"><path fill="#000" d="m10.999 2.031-.23 3.682 5.678 1.747 1.404-.438.298.956-1.239.386-2.362 7.557.868 1.302-.832.554-.918-1.376-5.716-2.426-2.534 3.802-.832-.554 2.652-3.98L6.56 9.38 2.342 7.975l.316-.95 4.207 1.403 2.781-2.782.133-.133.222-3.544.998.062ZM8.515 13.13l4.142 1.758L10 10.9l-1.485 2.23Zm2.271-2.85 3.048 4.572 1.914-6.123-4.962 1.55ZM8.04 12.036l1.18-1.77-1.583-.528.403 2.298ZM7.926 8.78l1.615.538.144-2.298-1.76 1.76Zm2.618.524 4.217-1.318-4.057-1.248-.16 2.566Z"/><path fill="#000" d="M10.791 3.406 14.497 8.5l-.034.207L13.5 14.5l-.338.067-7.164 1.44-.135-.43L3.606 8.35 3.5 8.003l.295-.21L10.5 3.006l.292.4Zm-6.122 4.99 2.015 6.453 5.943-1.195.814-4.906-3.168-4.353-5.604 4Z" opacity=".4"/></svg>