<svg width="80" height="100" viewBox="0 0 80 100" fill="none" xmlns="http://www.w3.org/2000/svg">
    <path d="M75 19v73.667A2.333 2.333 0 0 1 72.667 95H7.333A2.333 2.333 0 0 1 5 92.667V7.333A2.333 2.333 0 0 1 7.333 5H61z" fill="#3c6d88"/>
    <path d="m45 34-9 .048V32l9-.048zm-.54 11c0-1.824-1.696-2.944-4.128-2.944S36.14 43.176 36.14 45s1.76 2.944 4.192 2.944S44.46 46.824 44.46 45M50 38.048H31V36h19zM46.86 45c0 3.072-2.912 4.96-6.528 4.96-3.712 0-6.56-1.888-6.56-4.96s2.848-4.928 6.56-4.928c3.648 0 6.528 1.856 6.528 4.928" fill="#fff"/>
    <path opacity=".2" d="M75 19H63.333A2.333 2.333 0 0 1 61 16.667V5z" fill="#000"/>
    <path d="M50.441 78.434q1.659 0 2.42.714.762.709.762 1.958 0 .562-.17 1.078-.17.51-.556.908-.381.398-1.02.633-.639.228-1.576.228h-.78V87h-1.816v-8.566zm-.093 1.488h-.826v2.543h.597q.51 0 .885-.135t.58-.422.205-.738q0-.632-.352-.938-.35-.31-1.09-.31m-3.72-1.488L44.447 87H42.38l-1.16-4.5a9 9 0 0 1-.094-.393 41 41 0 0 1-.24-1.166 8 8 0 0 1-.065-.445q-.017.165-.07.44-.046.275-.111.585a22 22 0 0 1-.211.99L39.273 87h-2.062l-2.186-8.566h1.788l1.095 4.675q.048.212.106.504.065.293.123.615.065.317.111.616.052.293.076.51.03-.223.076-.516.048-.299.1-.604.06-.31.117-.574.059-.263.106-.428l1.248-4.798h1.717l1.247 4.798q.042.16.094.428a18 18 0 0 1 .223 1.184q.052.293.076.51a26 26 0 0 1 .422-2.245l1.09-4.675zM33.936 87h-1.811v-3.697h-3.393V87h-1.816v-8.566h1.816v3.357h3.393v-3.357h1.81zM59 63v2H21v-2zm0-3H21v-2h38zm0-5H21v-2h38z" fill="#fff"/>
</svg>
