<svg xmlns="http://www.w3.org/2000/svg" width="20" height="20" fill="none"><path fill="#000" d="M10.5 2a1.5 1.5 0 0 1 1.446 1.106A1.5 1.5 0 0 1 14 4.5v1.587a1.506 1.506 0 0 1 2.004 1.41c.008 1.38.024 2.715-.04 3.93-.062 1.215-.204 2.345-.529 3.312-.326.974-.846 1.805-1.67 2.387-.823.58-1.897.874-3.265.874-1.677 0-3.066-1.152-4.147-2.499-1.096-1.365-1.974-3.05-2.609-4.35C3.26 10.158 3.995 9 5.093 9c.393 0 .77.156 1.049.435l.858.858V5.5a1.5 1.5 0 0 1 2-1.413V3.5A1.5 1.5 0 0 1 10.5 2Zm0 1a.5.5 0 0 0-.5.5v7H9v-5a.5.5 0 0 0-1 0v7.207l-2.565-2.565A.485.485 0 0 0 5.093 10a.5.5 0 0 0-.45.712c.631 1.293 1.468 2.892 2.489 4.163C8.167 16.164 9.298 17 10.5 17c1.227 0 2.081-.263 2.688-.691.605-.427 1.02-1.056 1.3-1.888.281-.84.418-1.864.479-3.044.06-1.18.045-2.48.037-3.873A.506.506 0 0 0 14.5 7a.5.5 0 0 0-.5.5v3h-1v-6a.5.5 0 0 0-1 0v6h-1v-7a.5.5 0 0 0-.5-.5Z"/></svg>