<svg xmlns="http://www.w3.org/2000/svg" width="40" height="40" fill="none"><path fill="#000" d="M36 35H4v-1h32v1Zm0-3H4v-1h32v1Zm0-3H4v-1h32v1Zm0-3H4v-1h32v1Zm0-3H4v-1h32v1Zm0-3H4v-1h32v1Zm0-3H4v-1h32v1Zm0-3H4v-1h32v1Zm0-3H4v-1h32v1Zm0-3H4V7h32v1Zm0-4v1H4V4h32Z" opacity=".4"/><path fill="#000" d="M17.886 26c-.352.795-.755 1.484-1.158 2h-2.626c-.331-.515-.634-1.203-.87-2h4.654Zm8.765 0c-.222.791-.515 1.482-.848 2h-2.695c-.404-.516-.807-1.205-1.159-2h4.702ZM18.8 23a13.087 13.087 0 0 1-.52 2h-5.297a12.233 12.233 0 0 1-.233-2h6.05Zm8.286 0a12.26 12.26 0 0 1-.201 2h-5.33a13.087 13.087 0 0 1-.52-2h6.051Zm-.943-3c.413.489.758 1.142.89 2h-6.132a10.32 10.32 0 0 1-.041-.902c0-.505-.145-.673-.145-.841 0 .016.05.975-.096 1.743h-1.258c-.145-.769-.096-1.728-.095-1.743 0 .168-.29.505-.29.84 0 .301-.016.602-.042.903h-6.155c.103-.863.42-1.51.807-2h12.557Zm1.822-3c-.17.44-.364.816-.583 1.07-.87 1.01-2.464.673-3.189.673.164.038.401.121.671.257H14.735c.323-.2.603-.332.762-.425-.435.168-2.03.504-2.9-.505-.191-.254-.367-.63-.527-1.07h7.217c.082.263.123.46.123.566 0 0 .004-.268.069-.566h1.312c.065.298.069.566.069.566 0-.105.04-.302.12-.566h6.985Zm-10.124-3c.45.704.807 1.404 1.066 2H11.76a26.16 26.16 0 0 1-.44-2h6.521Zm10.869 0c-.107.633-.247 1.34-.426 2h-6.936c.25-.594.593-1.293 1.022-2h6.34Zm-13.704-3c.817.519 1.53 1.232 2.13 2h-5.988c-.093-.59-.144-.982-.144-.982 0-.164-.033-.607.099-1.018h3.903Zm13.968 0c.056.392.003.8.003 1.018 0 0-.04.392-.119.982h-5.82c.554-.754 1.206-1.461 1.948-2h3.988Z"/></svg>