<svg xmlns="http://www.w3.org/2000/svg" width="40" height="40" fill="none"><path fill="#000" d="M36 35H4v-1h32v1Zm0-3H4v-1h32v1Zm-8.184-22c1.45 0 1.16 1.513 1.16 2.018 0 0-.435 4.707-1.594 6.052-.87 1.01-2.464.673-3.189.673.725.168 2.899 1.177 2.899 4.035 0 3.195-1.304 6.222-2.609 6.222-1.304 0-3.623-4.035-3.624-7.902 0-.505-.144-.673-.144-.841.001.026.14 2.69-.725 2.69s-.726-2.665-.724-2.69c0 .168-.29.505-.29.84 0 3.867-2.319 7.902-3.623 7.903-1.16 0-2.61-3.027-2.61-6.39 0-2.858 2.174-3.698 2.754-4.035-.435.168-2.029.504-2.898-.505-1.015-1.345-1.595-6.052-1.595-6.052 0-.337-.145-1.85 1.305-1.85 4.493 0 7.101 6.558 7.101 7.398 0 0 0-1.344.725-1.344.724 0 .724 1.344.724 1.344 0-.84 2.61-7.566 6.957-7.566ZM36 8H4V7h32v1Zm0-3H4V4h32v1Z"/></svg>