<svg xmlns="http://www.w3.org/2000/svg" width="28" height="28" fill="none"><path fill="#000" d="M12.286 2.506c.275.034.507.214.68.38.194.185.406.442.64.766l.002.004c.848 1.199.853 2.762.49 4.32a13.568 13.568 0 0 1-.546 1.749c.213.826.442 1.673.675 2.505l.003-.003c.422-.342.961-.6 1.492-.467l.01.003.012.003c.446.134.694.484.838.792.133.283.215.61.277.863l.014.053c.024.098.046.183.067.258a2.15 2.15 0 0 0 .036-.094c.06-.178.113-.385.174-.628l.079-.305c.095-.361.214-.77.388-1.144.174-.375.42-.752.79-1.02l.006-.006c.179-.125.432-.24.718-.167.28.072.434.285.513.43.082.15.136.324.174.47.028.105.054.222.078.329l.029.12c.028.123.054.225.082.307a1.4 1.4 0 0 0 .053-.046.5.5 0 0 1 .68.734c-.187.172-.397.32-.63.375a.778.778 0 0 1-.72-.184 1.233 1.233 0 0 1-.304-.483 3.93 3.93 0 0 1-.136-.474l-.033-.148a8.122 8.122 0 0 0-.065-.274l-.011-.038c-.117.126-.222.29-.318.495a5.95 5.95 0 0 0-.327.978l-.066.259c-.066.258-.134.524-.208.743-.051.15-.115.306-.2.444a1.01 1.01 0 0 1-.388.381.904.904 0 0 1-.615.114.809.809 0 0 1-.502-.344 1.623 1.623 0 0 1-.198-.42 6.123 6.123 0 0 1-.117-.42l-.004-.02c-.071-.282-.131-.522-.221-.714-.084-.178-.156-.234-.21-.254-.078-.013-.286.015-.607.275a2.876 2.876 0 0 0-.326.314 149.75 149.75 0 0 0 1.64 5.37c.626 1.875.85 3.136.752 3.893-.05.378-.202.777-.587.961-.373.178-.762.054-1.037-.093-.567-.303-1.183-.977-1.694-1.756-.52-.792-.979-1.766-1.195-2.736-.479-2.027-.081-3.873.607-5.182.127-.242.266-.467.413-.674-.176-.621-.353-1.256-.524-1.889a27.568 27.568 0 0 1-.785 1.515 40.847 40.847 0 0 1-2.498 3.9 42.599 42.599 0 0 1-1.145 1.519l-.069.085-.018.023-.006.008a.501.501 0 0 1-.775-.633l.001-.001.004-.005.016-.02.065-.082a41.726 41.726 0 0 0 1.115-1.478 39.845 39.845 0 0 0 2.437-3.803c.469-.842.902-1.716 1.251-2.579-.12-.468-.233-.928-.339-1.375-.46-1.936-.79-3.684-.76-4.643.008-.238.038-.493.135-.7a.79.79 0 0 1 .274-.327.694.694 0 0 1 .474-.11Zm1.527 11.917c-.53 1.105-.824 2.63-.426 4.307v.006c.185.829.588 1.692 1.057 2.408.48.73.984 1.238 1.33 1.422.055.03.096.045.123.053a.79.79 0 0 0 .037-.169c.066-.508-.084-1.573-.708-3.447-.303-.907-.837-2.612-1.413-4.58ZM12.401 3.74c-.008.798.264 2.304.693 4.133l.03-.125c.339-1.45.27-2.661-.331-3.513a5.921 5.921 0 0 0-.392-.495Z"/><path fill="#000" d="M10 8H3v12h7v1H2V7h8v1Zm16 13h-7v-1h6V8h-8V7h9v14Z"/></svg>