<svg xmlns="http://www.w3.org/2000/svg" width="28" height="28" fill="none"><path fill="#000" d="M8.643 5c.493 0 .97.21 1.37.604l1.452 1.454c.25.248.508.506.761.76.84.848.844 1.937.004 2.782l-.258.257c-.333.334-.67.68-1.018 1.014.25.556.605 1.111 1.112 1.733 1.058 1.298 2.15 2.294 3.338 3.04.155.098.324.183.507.272.075.035.147.07.222.11.391-.404.792-.8 1.183-1.186l.106-.103c.4-.395.872-.603 1.366-.603.493 0 .969.213 1.369.608.729.72 1.48 1.472 2.222 2.24.831.836.827 1.925-.009 2.769-.146.147-.298.29-.44.432-.289.28-.555.542-.808.822-.592.662-1.375.995-2.326.995-.08 0-.16-.004-.245-.009-1.12-.062-2.266-.396-3.604-1.045a19.201 19.201 0 0 1-6.318-4.941c-1.413-1.685-2.422-3.37-3.085-5.148-.293-.786-.618-1.84-.529-3.003.058-.743.351-1.374.876-1.872.28-.262.556-.542.822-.813.187-.187.374-.378.565-.565C7.678 5.21 8.15 5 8.643 5Zm.013 1.066c-.263 0-.48.165-.618.298-.183.178-.37.37-.551.552-.276.275-.556.56-.845.835-.338.32-.511.693-.547 1.178-.053.746.09 1.534.467 2.551.618 1.662 1.565 3.24 2.903 4.831a18.09 18.09 0 0 0 5.966 4.666c1.205.587 2.223.886 3.196.939.747.04 1.285-.16 1.711-.636.276-.31.574-.596.859-.876.142-.137.289-.276.426-.418.423-.422.422-.848.027-1.261a520.915 520.915 0 0 0-2.227-2.223c-.138-.133-.36-.298-.618-.298s-.475.16-.613.298l-.107.103c-.422.417-.853.844-1.271 1.275a.823.823 0 0 1-.606.28.85.85 0 0 1-.413-.111c-.106-.058-.217-.111-.333-.17a6.571 6.571 0 0 1-.604-.323c-1.29-.81-2.468-1.88-3.602-3.272-.609-.75-1.031-1.422-1.32-2.12-.19-.453 0-.768.191-.955.374-.36.747-.733 1.107-1.098l.259-.262c.426-.431.421-.849-.005-1.28-.25-.253-.507-.507-.756-.756-.111-.106-.222-.218-.333-.329l-.357-.355a62.03 62.03 0 0 0-.763-.765c-.143-.138-.361-.298-.623-.298Z"/></svg>