<svg xmlns="http://www.w3.org/2000/svg" width="28" height="28" fill="none"><path fill="#000" d="M14.875 4c1.804 0 3.398.36 4.782 1.08 1.393.719 2.463 1.75 3.21 3.092C23.622 9.506 24 11.055 24 12.817c0 1.844-.382 3.324-1.145 4.44-.756 1.115-1.784 1.674-3.085 1.674-.746 0-1.354-.22-1.824-.656-.461-.436-.73-1.03-.805-1.783h-.051c-.361.809-.881 1.42-1.56 1.832-.68.404-1.473.607-2.38.607-1.241 0-2.202-.39-2.881-1.165-.68-.785-1.02-1.88-1.02-3.286 0-1.634.503-2.969 1.51-4.003 1.015-1.043 2.337-1.565 3.965-1.565 1.158 0 2.357.166 3.6.497l-.277 5.628v.363c0 .841.147 1.476.44 1.905.294.42.78.63 1.46.63.864 0 1.57-.469 2.114-1.407.554-.946.832-2.174.832-3.686 0-1.569-.332-2.944-.995-4.124-.662-1.18-1.61-2.086-2.844-2.717-1.225-.639-2.627-.958-4.204-.958-1.93 0-3.634.404-5.11 1.213a8.313 8.313 0 0 0-3.4 3.408c-.788 1.472-1.182 3.161-1.182 5.07 0 2.603.7 4.616 2.102 6.04 1.401 1.414 3.39 2.122 5.966 2.122.78 0 1.569-.073 2.366-.218.805-.146 1.78-.428 2.92-.849v1.2a14.57 14.57 0 0 1-5.21.971c-2.929 0-5.212-.809-6.848-2.426C4.818 19.95 4 17.694 4 14.807c0-2.07.453-3.93 1.36-5.58A9.625 9.625 0 0 1 9.223 5.37C10.894 4.457 12.777 4 14.875 4Zm-.24 5.883c-1.25 0-2.244.416-2.983 1.249-.738.825-1.107 1.933-1.107 3.323 0 1.156.23 2.025.692 2.607.462.583 1.192.873 2.19.873 2.14 0 3.285-1.398 3.436-4.196l.201-3.529c-.662-.218-1.472-.327-2.428-.327Z"/></svg>