<svg xmlns="http://www.w3.org/2000/svg" width="28" height="28" viewBox="0 0 28 28" stroke="currentColor" stroke-linecap="round" stroke-linejoin="round" fill="none">
    <path d="M23 22H11V7h12zm-5.44-10.56a1.5 1.5 0 0 0-2.12 0l-2 2a1.5 1.5 0 0 0 0 2.12l2 2A1.5 1.5 0 0 0 17.913 16H19.5a1.5 1.5 0 0 0 0-3h-1.587a1.5 1.5 0 0 0-.352-1.56" fill="currentColor" stroke="none" opacity=".8" class="icon-fill-blue-primary"/>
    <path d="M14.5 14.5h5m-3-2-2 2 2 2" class="icon-stroke-gray-primary"/>
    <path d="M21.5 6.5h-9a2 2 0 0 0-2 2v12a2 2 0 0 0 2 2h9a2 2 0 0 0 2-2v-12a2 2 0 0 0-2-2Z" class="icon-stroke-gray-primary"/>
    <path d="M13.5 22.5h-8a2 2 0 0 1-2-2v-12a2 2 0 0 1 2-2h8" class="icon-stroke-gray-primary"/>
</svg>
