<svg xmlns="http://www.w3.org/2000/svg" width="28" height="28" viewBox="0 0 28 28" stroke="currentColor" stroke-linecap="round" stroke-linejoin="round" fill="none">
    <path d="M20.5 4.5h-13a1 1 0 0 0-1 1v17a1 1 0 0 0 1 1h13a1 1 0 0 0 1-1v-17a1 1 0 0 0-1-1Z" class="icon-stroke-gray-primary"/>
    <path stroke-linecap="round" d="M13.5 10.5h3m-5-2h2m-2 9h2m0 2h3m-6-13h7a1 1 0 0 1 1 1v4a1 1 0 0 1-1 1h-7a1 1 0 0 1-1-1v-4a1 1 0 0 1 1-1Zm0 9h7a1 1 0 0 1 1 1v4a1 1 0 0 1-1 1h-7a1 1 0 0 1-1-1v-4a1 1 0 0 1 1-1Z" class="icon-stroke-blue-primary"/>
</svg>
