<svg xmlns="http://www.w3.org/2000/svg" width="28" height="28" viewBox="0 0 28 28" stroke="currentColor" stroke-linecap="round" stroke-linejoin="round" fill="none">
    <path opacity=".8" d="M17.21 19.67a1 1 0 0 0 .79-.978v-8.384a1 1 0 0 0-.79-.977l-12-2.572A1 1 0 0 0 4 7.737v13.526a1 1 0 0 0 1.21.978z" fill="currentColor" stroke="none" class="icon-fill-blue-primary"/>
    <path d="M3.5 8.5v12a2 2 0 0 0 2 2h16a2 2 0 0 0 2-2v-12a2 2 0 0 0-2-2h-16a2 2 0 0 0-2 2Z" class="icon-stroke-gray-primary"/>
</svg>
