<svg xmlns="http://www.w3.org/2000/svg" width="28" height="28" viewBox="0 0 28 28" stroke="currentColor" stroke-linecap="round" stroke-linejoin="round" fill="none">
    <path opacity=".8" d="M23 22H4V12h19zm-8.44-8.56a1.5 1.5 0 0 0-2.006-.104l-.114.104-2 2A1.5 1.5 0 0 0 12 17.912V19.5a1.5 1.5 0 0 0 3 0v-1.588a1.498 1.498 0 0 0 1.56-2.472z" fill="currentColor" stroke="none" class="icon-fill-blue-primary"/>
    <path d="M13.5 14.5v5m2-3-2-2-2 2" class="icon-stroke-gray-primary"/>
    <path d="M21.5 11.5h-16a2 2 0 0 0-2 2v7a2 2 0 0 0 2 2h16a2 2 0 0 0 2-2v-7a2 2 0 0 0-2-2Z" class="icon-stroke-gray-primary"/>
    <path d="M23.5 13.5v-5a2 2 0 0 0-2-2h-16a2 2 0 0 0-2 2v5" class="icon-stroke-gray-primary"/>
</svg>
