<svg xmlns="http://www.w3.org/2000/svg" width="28" height="28" viewBox="0 0 28 28" stroke="currentColor" stroke-linecap="round" stroke-linejoin="round" fill="none">
    <path opacity=".8" d="M16 7h7v14h-7z" fill="currentColor" stroke="none" class="icon-fill-blue-primary"/>
    <path d="M14.5 6.5h7a2 2 0 0 1 2 2v11a2 2 0 0 1-2 2h-7" class="icon-stroke-gray-primary"/>
    <path d="M7.5 14.5h5m-3-2-2 2 2 2" class="icon-stroke-gray-primary"/>
    <path d="M5.5 21.5h9a2 2 0 0 0 2-2v-11a2 2 0 0 0-2-2h-9a2 2 0 0 0-2 2v11a2 2 0 0 0 2 2Z" class="icon-stroke-gray-primary"/>
</svg>
