<svg xmlns="http://www.w3.org/2000/svg" width="28" height="28" viewBox="0 0 28 28" stroke="currentColor" stroke-linecap="round" stroke-linejoin="round" fill="none">
    <path opacity=".8" d="M19 20V9l4-2.5v16z" fill="currentColor" stroke="none" class="icon-fill-blue-primary"/>
    <path opacity=".4" d="M16 10h-5v9h5z" fill="currentColor" stroke="none" class="icon-fill-blue-primary"/>
    <path opacity=".8" d="M8 20V9L4 6.5v16z" fill="currentColor" stroke="none" class="icon-fill-blue-primary"/>
    <path d="M18.875 19.8a1 1 0 0 1-.375-.78V9.98a1 1 0 0 1 .375-.78l3-2.4a1 1 0 0 1 1.625.78v13.84a1 1 0 0 1-1.625.78zM16.5 10.5a1 1 0 0 0-1-1h-4a1 1 0 0 0-1 1v8a1 1 0 0 0 1 1h4a1 1 0 0 0 1-1zm-8.375 9.3a1 1 0 0 0 .375-.78V9.98a1 1 0 0 0-.375-.78l-3-2.4a1 1 0 0 0-1.625.78v13.84a1 1 0 0 0 1.625.78z" class="icon-stroke-gray-primary"/>
</svg>
