<svg xmlns="http://www.w3.org/2000/svg" width="28" height="28" viewBox="0 0 28 28" stroke="currentColor" stroke-linecap="round" stroke-linejoin="round" fill="none">
    <path d="M10.733 15a.5.5 0 0 1 .416.223l1.667 2.5a.5.5 0 0 1 0 .554l-1.667 2.5a.5.5 0 0 1-.416.223H8.268a.5.5 0 0 1-.416-.223l-1.667-2.5a.5.5 0 0 1 0-.554l1.667-2.5A.5.5 0 0 1 8.268 15zm7-3a.5.5 0 0 1 .416.223l1.667 2.5a.5.5 0 0 1 0 .554l-1.667 2.5a.5.5 0 0 1-.416.223h-2.465a.5.5 0 0 1-.416-.223l-1.667-2.5a.5.5 0 0 1 0-.554l1.667-2.5a.5.5 0 0 1 .416-.223zm-6-4a.5.5 0 0 1 .416.223l1.667 2.5a.5.5 0 0 1 0 .554l-1.667 2.5a.5.5 0 0 1-.416.223H9.268a.5.5 0 0 1-.416-.223l-1.667-2.5a.5.5 0 0 1 0-.554l1.667-2.5A.5.5 0 0 1 9.268 8zm8-1.5a.5.5 0 0 1 .416.223l.667 1a.5.5 0 0 1 0 .554l-1.667 2.5a.5.5 0 0 1-.416.223h-2.465a.5.5 0 0 1-.416-.223l-1.667-2.5a.5.5 0 0 1 0-.554l.667-1a.5.5 0 0 1 .416-.223z" fill="currentColor" stroke="none" opacity=".8" class="icon-fill-blue-primary"/>
    <path d="M3.5 8.5v12a2 2 0 0 0 2 2h16a2 2 0 0 0 2-2v-12a2 2 0 0 0-2-2h-16a2 2 0 0 0-2 2Z" class="icon-stroke-gray-primary"/>
</svg>
