<svg xmlns="http://www.w3.org/2000/svg" width="28" height="28" viewBox="0 0 28 28" stroke="currentColor" stroke-linecap="round" stroke-linejoin="round" fill="none">
    <path d="M24 12.5v4L19 23v-6.5L14 23v-6.5L9 23v-6.5l-4.104 5.334A.5.5 0 0 1 4 21.53V7.47a.5.5 0 0 1 .896-.304L9 12.5V6l5 6.5V6l5 6.5V6l5 6.5Z" fill="currentColor" stroke="none" opacity=".8" class="icon-fill-blue-primary"/>
    <path d="M3.5 8.5v12a2 2 0 0 0 2 2h16a2 2 0 0 0 2-2v-12a2 2 0 0 0-2-2h-16a2 2 0 0 0-2 2Z" class="icon-stroke-gray-primary"/>
</svg>
