<svg xmlns="http://www.w3.org/2000/svg" width="28" height="28" viewBox="0 0 28 28" stroke="currentColor" stroke-linecap="round" stroke-linejoin="round" fill="none">
    <path d="M23 22H4V7h19zM14 8c-1.089 0-2.172.37-2.98 1.216-.804.843-1.184 2-1.184 3.296a1.5 1.5 0 0 0 3 0c0-.717.202-1.065.354-1.225.15-.157.399-.287.81-.287.41 0 .634.13.752.248S15 11.591 15 12c0 .284-.07.379-.12.438-.098.118-.265.24-.646.466-.298.177-.879.495-1.327.944A3.04 3.04 0 0 0 12 16.06v.44c0 .473.22.894.562 1.169a1.5 1.5 0 0 0 .923 2.682h.007a1.5 1.5 0 0 0 .933-2.673c.35-.275.575-.7.575-1.178v-.44c0-.078 0-.063.03-.092.115-.115.284-.215.736-.483.368-.218.952-.568 1.417-1.125.512-.614.817-1.394.817-2.36 0-1.09-.37-2.116-1.127-2.873S15.091 8 14 8" fill="currentColor" stroke="none" opacity=".4" class="icon-fill-blue-primary"/>
    <path d="M13.484 18.85h.007" stroke-width="1.667" class="icon-stroke-gray-primary"/>
    <path d="M11.336 12.512C11.336 10.5 12.5 9.5 14 9.5s2.5 1 2.5 2.5c0 2.5-3 2-3 4.06v.44" class="icon-stroke-gray-primary"/>
    <path d="M3.5 8.5v12a2 2 0 0 0 2 2h16a2 2 0 0 0 2-2v-12a2 2 0 0 0-2-2h-16a2 2 0 0 0-2 2Z" class="icon-stroke-gray-primary"/>
</svg>
