<svg xmlns="http://www.w3.org/2000/svg" width="28" height="28" viewBox="0 0 28 28" stroke="currentColor" stroke-linecap="round" stroke-linejoin="round" fill="none">
    <path d="M20.5 4.5h-13a1 1 0 0 0-1 1v17a1 1 0 0 0 1 1h13a1 1 0 0 0 1-1v-17a1 1 0 0 0-1-1Z" class="icon-stroke-gray-primary"/>
    <path d="M17.5 7.5h-7a1 1 0 0 0-1 1v5a1 1 0 0 0 1 1h7a1 1 0 0 0 1-1v-5a1 1 0 0 0-1-1Z" class="icon-stroke-gray-primary"/>
    <path stroke-linecap="round" d="M9.5 17.5h9m-9 3h7" class="icon-stroke-blue-primary"/>
</svg>
