<svg xmlns="http://www.w3.org/2000/svg" width="28" height="28" viewBox="0 0 28 28" stroke="currentColor" stroke-linecap="round" stroke-linejoin="round" fill="none">
    <path opacity=".8" d="M9 17v-5h9v5z" fill="currentColor" stroke="none" class="icon-fill-blue-primary"/>
    <path d="m5.5 8.5 3 3m-3 0v-3h3m-3 12 3-3m-3 0v3h3m13-12-3 3m3 0v-3h-3m3 12-3-3m3 0v3h-3m-10-4v-4a1 1 0 0 1 1-1h8a1 1 0 0 1 1 1v4a1 1 0 0 1-1 1h-8a1 1 0 0 1-1-1m-5 4v-12a2 2 0 0 1 2-2h16a2 2 0 0 1 2 2v12a2 2 0 0 1-2 2h-16a2 2 0 0 1-2-2"  class="icon-stroke-gray-primary"/>
</svg>
