<svg xmlns="http://www.w3.org/2000/svg" width="28" height="28" viewBox="0 0 28 28" stroke="currentColor" stroke-linecap="round" stroke-linejoin="round" fill="none">
    <path d="M8.5 14.5H7a.5.5 0 0 0-.5.5v3a.5.5 0 0 0 .5.5h1.5M7 6.5h2a.5.5 0 0 1 .5.5v3a.5.5 0 0 1-.5.5H7a.5.5 0 0 1-.5-.5V7a.5.5 0 0 1 .5-.5Zm5 0h2a.5.5 0 0 1 .5.5v3a.5.5 0 0 1-.5.5h-2a.5.5 0 0 1-.5-.5V7a.5.5 0 0 1 .5-.5Zm-1 8h3a.5.5 0 0 1 .5.5v2a.5.5 0 0 1-.5.5h-3a.5.5 0 0 1-.5-.5v-2a.5.5 0 0 1 .5-.5Zm7 0h3a.5.5 0 0 1 .5.5v2a.5.5 0 0 1-.5.5h-3a.5.5 0 0 1-.5-.5v-2a.5.5 0 0 1 .5-.5Zm-7 5h3a.5.5 0 0 1 .5.5v2a.5.5 0 0 1-.5.5h-3a.5.5 0 0 1-.5-.5v-2a.5.5 0 0 1 .5-.5Zm7 0h3a.5.5 0 0 1 .5.5v2a.5.5 0 0 1-.5.5h-3a.5.5 0 0 1-.5-.5v-2a.5.5 0 0 1 .5-.5Z" class="icon-stroke-blue-primary"/>
    <path d="M8.5 20.5h-3a1 1 0 0 1-1-1v-14a1 1 0 0 1 1-1h10a1 1 0 0 1 1 1v7" class="icon-stroke-gray-primary"/>
    <path d="M22.5 12.5h-13a1 1 0 0 0-1 1v10a1 1 0 0 0 1 1h13a1 1 0 0 0 1-1v-10a1 1 0 0 0-1-1Z" class="icon-stroke-gray-primary"/>
</svg>
