<svg width="24" height="24" viewBox="0 0 24 24" fill="none" xmlns="http://www.w3.org/2000/svg">
<path fill-rule="evenodd" clip-rule="evenodd" d="M19.5 4.74805C19.9142 4.74805 20.25 5.08383 20.25 5.49805V18.498C20.2495 18.9118 19.9139 19.248 19.5 19.248C19.0861 19.248 18.7505 18.9118 18.75 18.498V5.49805C18.75 5.08383 19.0858 4.74805 19.5 4.74805ZM3.75 6.81738C3.75038 5.43678 5.27458 4.60051 6.43945 5.3418L14.5771 10.5195C15.6572 11.2072 15.6571 12.7849 14.5771 13.4727L6.43945 18.6514C5.2745 19.3926 3.7501 18.5556 3.75 17.1748V6.81738ZM5.63379 6.60645C5.46757 6.50117 5.25038 6.62061 5.25 6.81738V17.1748C5.2501 17.3719 5.46744 17.4913 5.63379 17.3857L13.7715 12.207C13.9253 12.1087 13.9253 11.8834 13.7715 11.7852L5.63379 6.60645Z" fill="#FBFBFB"/>
</svg>
