<svg width="24" height="24" viewBox="0 0 24 24" fill="none" xmlns="http://www.w3.org/2000/svg">
<path fill-rule="evenodd" clip-rule="evenodd" d="M4.5 4.74414C4.91421 4.74414 5.25 5.08188 5.25 5.49609V18.4961C5.24947 18.9099 4.91389 19.2461 4.5 19.2461C4.08611 19.2461 3.75053 18.9099 3.75 18.4961V5.49609C3.75 5.08188 4.08579 4.74414 4.5 4.74414ZM17.5605 5.3418C18.7254 4.60058 20.2496 5.43681 20.25 6.81738V17.1748C20.2499 18.5556 18.7255 19.3926 17.5605 18.6514L9.42285 13.4727C8.34242 12.785 8.34244 11.2072 9.42285 10.5195L17.5605 5.3418ZM18.75 6.81738C18.7496 6.62064 18.5324 6.50124 18.3662 6.60645L10.2285 11.7852C10.0743 11.8834 10.0742 12.1088 10.2285 12.207L18.3662 17.3857C18.5326 17.4913 18.7499 17.3719 18.75 17.1748V6.81738Z" fill="#FBFBFB"/>
</svg>
