<svg xmlns="http://www.w3.org/2000/svg" width="24" height="24" fill="none" viewBox="0 0 24 24">
  <g class="icon-transition-ripple">
    <path fill="var(--transition-icon-fill)" d="M12.005 7.281a4.719 4.719 0 1 1 0 9.438 4.719 4.719 0 0 1 0-9.438Zm0 1a3.719 3.719 0 1 0 0 7.438 3.719 3.719 0 0 0 0-7.438Zm0 1.844a1.875 1.875 0 1 1 0 3.75 1.875 1.875 0 0 1 0-3.75Z" class="icon-fill-red-brend-transition-secondary"/>
    <path fill="var(--transition-stroke)" d="M20.75 19.25H3.5a.25.25 0 0 1-.25-.25V5a.25.25 0 0 1 .25-.25h17.25v14.5ZM12.005 5.437a6.563 6.563 0 1 0 0 13.126 6.563 6.563 0 0 0 0-13.125Zm0 .907a5.656 5.656 0 1 1 0 11.312 5.656 5.656 0 0 1 0-11.312Zm0 1a4.656 4.656 0 1 0 0 9.312 4.656 4.656 0 0 0 0-9.312Zm0 .875a3.781 3.781 0 1 1 0 7.562 3.781 3.781 0 0 1 0-7.562Zm0 1a2.781 2.781 0 1 0 0 5.562 2.781 2.781 0 0 0 0-5.562Z" class="icon-fill-red-brend-transition-primary" opacity=".8"/>
    <path fill="var(--transition-fill)" d="M20.5 3.25c.966 0 1.75.784 1.75 1.75v14a1.75 1.75 0 0 1-1.75 1.75h-17A1.75 1.75 0 0 1 1.75 19V5c0-.966.784-1.75 1.75-1.75h17Zm-17 1.5a.25.25 0 0 0-.25.25v14c0 .138.112.25.25.25h17a.25.25 0 0 0 .25-.25V5a.25.25 0 0 0-.25-.25h-17Z" class="icon-stroke-gray-primary"/>
  </g>
</svg>
