<svg xmlns="http://www.w3.org/2000/svg" width="20" height="20" fill="none"><path fill="#000" d="M18.313 9.628 16.19 11.75l-.006.006-4.943 4.943-3.536.707.707-3.535L15.484 6.8l2.829 2.828Zm-8.978 4.736-.355 1.768 1.769-.354 4.027-4.029-1.413-1.414-4.028 4.03Zm4.735-4.736 1.414 1.414 1.414-1.414-1.414-1.414-1.414 1.414ZM6 17H3v-1h3v1Zm1-3H3v-1h4v1Zm2-3H3v-1h6v1Zm2.504-6.204L13.08 3.22l.707.707-1.577 1.576L13.808 7.1l-.707.707-1.597-1.597-1.576 1.577-.707-.708 1.576-1.576L9.2 3.907l.707-.707 1.596 1.596ZM8.07 3.879 5.33 6.62l.001.002-.707.707-2.022-2.022.707-.707 1.313 1.313 2.741-2.741.707.707Z"/></svg>