<svg xmlns="http://www.w3.org/2000/svg" width="20" height="20" fill="none"><path fill="#000" d="M4 17v-1h13v1H4Z"/><path fill="#000" d="M5 15H4v-1h1v1Zm6 0h-1v-1h1v1Zm6 0h-1v-1h1v1ZM5 13H4v-1h1v1Zm6 0h-1v-1h1v1Zm6 0h-1v-1h1v1ZM5 11H4v-1h1v1Zm2 0H6v-1h1v1Zm2 0H8v-1h1v1Zm2 0h-1v-1h1v1Zm2 0h-1v-1h1v1Zm2 0h-1v-1h1v1Zm2 0h-1v-1h1v1ZM5 9H4V8h1v1Zm6 0h-1V8h1v1Zm6 0h-1V8h1v1ZM5 7H4V6h1v1Zm6 0h-1V6h1v1Zm6 0h-1V6h1v1ZM5 5H4V4h1v1Zm2 0H6V4h1v1Zm2 0H8V4h1v1Zm2 0h-1V4h1v1Zm2 0h-1V4h1v1Zm2 0h-1V4h1v1Zm2 0h-1V4h1v1Z" opacity=".4"/></svg>