<svg xmlns="http://www.w3.org/2000/svg" width="20" height="20" fill="none"><path fill="#000" d="m8.853 7.146-.707.708L7 6.707V16H6V6.707L4.853 7.854l-.707-.708L6.5 4.793l2.353 2.353Zm6.157 4.927-1.137.438v2.003l1.138.413V16L10 14.049v-1.07l5.01-2.007v1.101Zm-3.841 1.452 1.86.677v-1.367l-1.86.69Zm2.39-7.722c.227 0 .45.053.666.16.214.105.386.25.516.434.128.183.206.408.236.677.018.169.03.575.034 1.22V10H10V7.997c0-.396.018-.692.052-.886a1.272 1.272 0 0 1 .625-.909 1.13 1.13 0 0 1 .585-.153c.234 0 .45.064.645.191.196.126.344.296.442.513.088-.305.24-.54.454-.704.214-.164.466-.246.755-.246Zm-2.154 1.23a.54.54 0 0 0-.376.13c-.098.084-.157.21-.178.379-.01.1-.017.389-.017.865v.581h1.16v-.663c0-.394-.007-.64-.018-.735a.665.665 0 0 0-.178-.406.531.531 0 0 0-.393-.15Zm2.106-.184a.655.655 0 0 0-.383.109.618.618 0 0 0-.23.317c-.047.137-.07.436-.07.896v.817h1.339v-.936c0-.365-.01-.597-.031-.695a.623.623 0 0 0-.199-.365.617.617 0 0 0-.426-.143Z"/></svg>