<svg xmlns="http://www.w3.org/2000/svg" width="20" height="20" fill="none"><path fill="#000" d="M14.997 12H15v.003l.508.508-2.354 2.353-.707-.707L13.605 13H4v-1h9.583l-1.136-1.136.707-.707L14.997 12Zm-5.97-2.99h-1.1l-.438-1.137H5.486l-.413 1.138H4L5.952 4h1.07l2.005 5.01Zm-3.23-1.982h1.368l-.69-1.859-.677 1.86ZM11.994 4c.397 0 .692.018.886.052a1.271 1.271 0 0 1 .91.625c.102.173.152.368.152.585 0 .234-.063.45-.191.645a1.166 1.166 0 0 1-.513.442c.306.088.54.24.704.454.164.214.246.466.246.756 0 .227-.053.45-.16.666a1.34 1.34 0 0 1-.434.516 1.435 1.435 0 0 1-.677.236c-.169.018-.575.03-1.22.034H9.991V4h2.003Zm-.991 4.167h.937c.364 0 .596-.01.694-.031a.623.623 0 0 0 .365-.198.617.617 0 0 0 .144-.427.655.655 0 0 0-.11-.383.618.618 0 0 0-.317-.23c-.137-.047-.436-.07-.896-.07h-.817v1.339Zm0-2.174h.663c.394 0 .64-.006.735-.017a.666.666 0 0 0 .407-.178c.1-.1.15-.231.15-.393a.54.54 0 0 0-.13-.376c-.084-.098-.21-.157-.379-.177-.1-.012-.389-.018-.865-.018h-.581v1.16Z"/></svg>