<svg xmlns="http://www.w3.org/2000/svg" width="20" height="20" fill="none"><path fill="#000" d="M10 14c3.11 0 4.798 2.03 5.443 3.269l-.886.462C14.01 16.685 12.604 15 10 15s-4.012 1.685-4.557 2.731l-.886-.462C5.202 16.029 6.89 14 10 14Zm1-11H8v9H7V3H4V2h7v1Z"/><path fill="#000" d="M12.532 4.672c1.645 0 2.468.87 2.468 2.611v4.553h-1.121v-1.094h-.027c-.488.839-1.206 1.258-2.154 1.258-.697 0-1.244-.185-1.64-.554-.392-.369-.588-.859-.588-1.47 0-1.307.77-2.068 2.31-2.283l2.1-.293c0-1.189-.48-1.784-1.442-1.784-.844 0-1.605.287-2.284.862v-1.15c.688-.437 1.481-.656 2.38-.656Zm-.342 3.855c-.52.073-.911.203-1.175.39-.265.182-.397.508-.397.978 0 .341.12.622.362.84.247.215.572.322.978.322.556 0 1.014-.194 1.374-.581.365-.392.547-.887.547-1.484v-.697l-1.689.232Z"/></svg>