<svg xmlns="http://www.w3.org/2000/svg" width="20" height="20" fill="none"><path fill="#000" d="M9.331 6c.89 0 1.555.182 1.996.545.449.363.673.93.673 1.702 0 1.26-.588 2.206-1.765 2.836-1.169.63-2.908.945-5.216.945a7.44 7.44 0 0 0-.133 1.447c0 .778.15 1.345.452 1.7.301.35.795.523 1.478.523.677 0 1.29-.148 1.842-.444.552-.297 1.129-.753 1.732-1.368l.683.722c-.544.6-1.065 1.076-1.565 1.424-.5.349-1 .597-1.5.745-.5.149-1.053.223-1.655.223-.581 0-1.081-.093-1.5-.278a3.02 3.02 0 0 1-1.048-.779 3.315 3.315 0 0 1-.607-1.178A5.369 5.369 0 0 1 3 13.275c0-.794.14-1.644.419-2.548A7.488 7.488 0 0 1 4.71 8.28 5.932 5.932 0 0 1 6.772 6.6 5.65 5.65 0 0 1 9.331 6Zm-.397.879c-.515 0-1.022.19-1.522.567-.493.371-.93.875-1.312 1.513a8.765 8.765 0 0 0-.894 2.124 15.06 15.06 0 0 0 1.775-.111 8.14 8.14 0 0 0 1.324-.29 3.62 3.62 0 0 0 .916-.445 2.3 2.3 0 0 0 .573-.555c.147-.208.246-.423.298-.646.059-.23.088-.467.088-.712 0-.452-.107-.804-.32-1.056-.206-.26-.515-.39-.926-.39Zm6.286-2.302c.133-.125.259-.255.378-.389a2.59 2.59 0 0 0 .25-.318.924.924 0 0 0 .102-.209.65.65 0 0 0 .029-.192c0-.154-.087-.242-.26-.264L15.765 3h1.155l.081.205a42.035 42.035 0 0 1-1.646 1.711l.377.917c.1.245.18.427.24.544.06.114.113.198.162.25.048.05.097.088.145.113a.87.87 0 0 0 .232.055L16.465 7h-1.009l-.563-1.682c-.065.059-.152.14-.26.246a4.512 4.512 0 0 0-.308.335c-.1.118-.17.213-.21.286a.813.813 0 0 0-.082.187.814.814 0 0 0-.015.163c0 .073.018.13.056.172.04.042.108.071.202.088L14.232 7h-1.155L13 6.795a36.365 36.365 0 0 1 1.747-1.812l-.386-.933a7.16 7.16 0 0 0-.19-.43 1.074 1.074 0 0 0-.142-.231.42.42 0 0 0-.154-.125.638.638 0 0 0-.247-.059L13.673 3h1.009l.539 1.577Z"/></svg>