<svg xmlns="http://www.w3.org/2000/svg" width="20" height="20" fill="none"><path fill="#000" d="m17.207 8.5-.707.707-1-1-2.53 2.528-.475 3.335a.501.501 0 0 1-.141.284l-1.5 1.5a.5.5 0 0 1-.707 0L7.5 13.207l-3.5 3.5L3.293 16l3.5-3.5-2.647-2.646a.5.5 0 0 1 0-.708l1.5-1.5.062-.052a.502.502 0 0 1 .222-.09l3.334-.476L11.793 4.5l-1-1 .707-.707L17.207 8.5Zm-7.353-.646a.501.501 0 0 1-.284.141l-3.335.476L5.207 9.5l5.293 5.293 1.028-1.03.477-3.333.018-.08a.5.5 0 0 1 .123-.204L14.793 7.5 12.5 5.207 9.854 7.854Z"/></svg>