<svg xmlns="http://www.w3.org/2000/svg" width="20" height="20" fill="none"><g fill="#000" opacity=".4"><path d="M6 12.584a6.667 6.667 0 0 1 6.584-6.583 5.001 5.001 0 1 0-6.583 6.583Z"/><path d="M13 7.333c0 .116-.004.23-.01.344a5 5 0 0 1-5.313 5.313 5.76 5.76 0 0 1-.578.005 4.805 4.805 0 0 1-.015-.079 5.15 5.15 0 0 1-.08-.015 5.775 5.775 0 0 1 .006-.578 5 5 0 0 1 5.313-5.313 5.75 5.75 0 0 1 .578-.005l.015.079.08.015c.002.078.004.156.004.234Z"/><path d="M14 7.416a6.667 6.667 0 0 1-6.584 6.583 5.001 5.001 0 1 0 6.583-6.583Z"/></g><path fill="#000" d="M8 3a5.001 5.001 0 0 1 4.584 3 6.703 6.703 0 0 0-1.064.098 4 4 0 1 0-5.422 5.422c-.06.346-.093.702-.098 1.064A5.001 5.001 0 0 1 8 3Zm6 4.416a6.697 6.697 0 0 1-.098 1.064 4 4 0 1 1-5.422 5.422c-.346.06-.702.093-1.064.098a5.001 5.001 0 1 0 6.583-6.584Z"/><path fill="#000" d="M7 12v1h1a5 5 0 0 0 5-5V7h-1a5 5 0 0 0-5 5Zm5-4a4 4 0 0 1-4 4 4 4 0 0 1 4-4Z"/></svg>