<svg xmlns="http://www.w3.org/2000/svg" width="20" height="20" fill="none"><path fill="#000" d="M7 5v9.293l1.146-1.146.707.707L6.5 16.207l-2.354-2.354.707-.707L6 14.293V5h1Zm8.01 8.003c0 .396-.016.691-.05.885-.032.196-.1.37-.205.523a1.274 1.274 0 0 1-.421.386 1.126 1.126 0 0 1-.584.154 1.16 1.16 0 0 1-.646-.191 1.165 1.165 0 0 1-.441-.513c-.089.305-.24.54-.455.704a1.207 1.207 0 0 1-.755.246 1.49 1.49 0 0 1-.667-.16 1.336 1.336 0 0 1-.516-.435 1.434 1.434 0 0 1-.236-.676c-.018-.169-.03-.576-.034-1.22V11h5.01v2.003Zm-4.165-.055c0 .364.01.595.03.694.027.15.093.272.198.366.107.096.25.143.428.143.15 0 .278-.036.383-.109a.62.62 0 0 0 .228-.318c.048-.137.072-.436.072-.896v-.816h-1.34v.936Zm2.173-.273c0 .393.006.638.017.734.02.173.08.31.178.407.1.1.232.15.393.15a.54.54 0 0 0 .376-.13c.098-.083.158-.21.178-.379.011-.1.017-.389.017-.864v-.581h-1.159v.663Zm1.992-5.724v1.07L10 10.027v-1.1l1.139-.438V6.486l-1.14-.413V5l5.012 1.951Zm-3.028 1.214 1.86-.69-1.86-.677v1.367Z"/></svg>