<svg xmlns="http://www.w3.org/2000/svg" width="20" height="20" fill="none"><path fill="#000" d="m16.207 15.5-.707.707-2.896-2.897-.109.76a.501.501 0 0 1-.141.284l-1.5 1.5a.5.5 0 0 1-.707 0L7.5 13.207l-3.5 3.5L3.293 16l3.5-3.5-2.647-2.646a.5.5 0 0 1 0-.708l1.5-1.5.062-.052a.502.502 0 0 1 .222-.09l.758-.108L3.793 4.5l.707-.707L16.207 15.5Zm-8.79-7.197-1.182.168L5.207 9.5l5.293 5.293 1.028-1.03.17-1.188.02-.15L7.573 8.28l-.155.024Zm9.79.197-.707.707-1-1-2.5 2.5-.707-.707 2.5-2.5L12.5 5.207l-2.5 2.5L9.293 7l2.5-2.5-1-1 .707-.707L17.207 8.5Z"/></svg>