<svg xmlns="http://www.w3.org/2000/svg" width="20" height="20" fill="none"><path fill="#000" d="M7 10c5.46 0 5.997 3.193 6 3.212V16H1v-2.79c.003-.016.54-3.21 6-3.21Zm0 1c-4.159 0-4.9 1.906-5 2.313v1.688h10v-1.692C11.909 12.934 11.184 11 7 11Zm6.01.017c1.99 0 5.99 0 5.99 2.721v2.263h-5V13c-.117-.787-.486-1.373-.99-1.983ZM14.5 5a2.5 2.5 0 1 1 0 5 2.5 2.5 0 0 1 0-5ZM7 3c1.634 0 3 1.366 3 3S8.634 9 7 9 4 7.634 4 6s1.366-3 3-3Zm0 1c-1.103 0-2 .897-2 2 0 1.104.897 2.001 2 2.001C8.09 8 9 7.089 9 6c0-1.103-.897-2-2-2Z"/></svg>