<svg xmlns="http://www.w3.org/2000/svg" width="20" height="20" fill="none"><path fill="#000" d="m17.666 9.475-4.599 5.304c-.01.072-.253 1.608-2.206 2.584-1.988.994-4.961-.481-4.997-.499.02.001 1.337.059 2.366-2.132.987-2.098 2.554-2.084 2.705-2.078l5.317-4.593 1.414 1.414Zm-7.283 4.305c-.326.145-.83.49-1.247 1.378a6.29 6.29 0 0 1-.913 1.442c.815.16 1.61.16 2.191-.13.811-.406 1.224-.91 1.436-1.276a2.65 2.65 0 0 0 .078-.144l-1.342-1.342a1.68 1.68 0 0 0-.203.072Zm1.268-.42.71.71 3.94-4.547-.099-.098-4.55 3.934ZM8.462 1.808l3.504 8.408-.807.665-.367-.881H5.209l-1.747 4.192-.923-.384 5-12h.923ZM5.626 9h4.75L8.001 3.3 5.626 9Z"/></svg>