<svg xmlns="http://www.w3.org/2000/svg" width="20" height="20" fill="none"><path fill="#000" d="M15.003 11c.396 0 .692.018.886.052a1.272 1.272 0 0 1 .909.625c.102.173.153.368.153.585 0 .234-.064.45-.191.645a1.166 1.166 0 0 1-.513.442c.305.088.54.24.704.454.164.214.246.466.246.756a1.5 1.5 0 0 1-.16.666 1.336 1.336 0 0 1-.434.516 1.434 1.434 0 0 1-.677.236c-.169.018-.575.03-1.22.034H13V11h2.003Zm-.991 4.167h.936c.365 0 .597-.01.695-.031a.623.623 0 0 0 .365-.198.617.617 0 0 0 .143-.427.655.655 0 0 0-.109-.383.619.619 0 0 0-.317-.23c-.137-.047-.436-.07-.896-.07h-.817v1.339Zm0-2.174h.663c.394 0 .64-.006.735-.017a.667.667 0 0 0 .406-.178c.1-.1.15-.231.15-.393a.54.54 0 0 0-.13-.376c-.083-.098-.21-.157-.378-.177-.1-.012-.389-.018-.865-.018h-.581v1.16ZM6 7.172a2.999 2.999 0 0 0 1 5.826h2.043l-1.147-1.146.708-.707 2.353 2.353-2.353 2.354-.708-.707 1.147-1.147H7a4 4 0 0 1-1-7.874v1.048Zm7.027.838h-1.1l-.438-1.137H9.486l-.413 1.138H8L9.952 3h1.07l2.005 5.01Zm-3.23-1.982h1.368l-.69-1.859-.677 1.86Z"/></svg>