<svg xmlns="http://www.w3.org/2000/svg" width="20" height="20" fill="none"><path fill="#000" d="M16.502 13A6.48 6.48 0 0 0 17 10.5a6.48 6.48 0 0 0-.498-2.5h-1.929c.277.782.427 1.624.427 2.5a7.47 7.47 0 0 1-.427 2.5h1.929ZM14 10.5a6.48 6.48 0 0 0-.498-2.5H11v5h2.502A6.48 6.48 0 0 0 14 10.5ZM15.978 7a6.5 6.5 0 0 0-4.644-2.947A7.536 7.536 0 0 1 14.134 7h1.844Zm-3 0A6.535 6.535 0 0 0 11 5.022V7h1.978ZM11 14v1.978A6.536 6.536 0 0 0 12.978 14H11Zm4.978 0h-1.843a7.537 7.537 0 0 1-2.8 2.947A6.5 6.5 0 0 0 15.978 14ZM10 13V8H7.498A6.48 6.48 0 0 0 7 10.5c0 .886.177 1.73.498 2.5H10Zm-3.573 0A7.488 7.488 0 0 1 6 10.5c0-.876.15-1.718.427-2.5H4.498A6.48 6.48 0 0 0 4 10.5c0 .886.177 1.73.498 2.5h1.929Zm1.595-6H10V5.022A6.535 6.535 0 0 0 8.022 7Zm1.644-2.947A6.5 6.5 0 0 0 5.022 7h1.843a7.535 7.535 0 0 1 2.8-2.947ZM6.865 14H5.022a6.5 6.5 0 0 0 4.643 2.947A7.536 7.536 0 0 1 6.865 14ZM10 15.978V14H8.022A6.535 6.535 0 0 0 10 15.978Zm8-5.478a7.5 7.5 0 1 1-15 0 7.5 7.5 0 0 1 15 0Z"/></svg>