<svg xmlns="http://www.w3.org/2000/svg" width="20" height="20" fill="none"><path fill="#000" d="M10.764 11.647a3.002 3.002 0 0 1-.48 3.303l-.107.112-2.121 2.121-.112.107a3 3 0 0 1-4.019 0l-.112-.107-.707-.707a3 3 0 0 1 0-4.242l2.121-2.122a2.999 2.999 0 0 1 3.413-.584l-.775.775a1.998 1.998 0 0 0-1.93.516l-2.122 2.122a2 2 0 0 0 0 2.828l.707.707a2 2 0 0 0 2.829 0l2.121-2.121a1.998 1.998 0 0 0 .517-1.93l.777-.778Z"/><path fill="#000" d="m6.636 14.35-.707-.708 7.778-7.778.707.707-7.778 7.778Z"/><path fill="#000" d="M17.355 3.86a3 3 0 0 1-.107 4.131l-2.121 2.121a3.001 3.001 0 0 1-3.415.587l.777-.777a1.998 1.998 0 0 0 1.93-.517l2.122-2.121a2 2 0 0 0 0-2.829l-.707-.707a2 2 0 0 0-2.828 0L10.884 5.87a1.998 1.998 0 0 0-.516 1.93l-.774.774a2.998 2.998 0 0 1 .583-3.411L12.3 3.04a3 3 0 0 1 4.242 0l.707.707.107.112Z"/></svg>