<svg xmlns="http://www.w3.org/2000/svg" width="20" height="20" fill="none"><path fill="#000" d="M8 13a5 5 0 0 0 4.916-5.916A5.002 5.002 0 0 1 12 17a5.002 5.002 0 0 1-4.916-4.084c.297.055.603.084.916.084Zm-.916-.084a5.001 5.001 0 1 1 5.832-5.832 5 5 0 0 0-5.832 5.832Z" opacity=".4"/><path fill="#000" d="M12.916 7.084A5.002 5.002 0 0 1 12 17a5.002 5.002 0 0 1-4.916-4.084 5.001 5.001 0 1 1 5.832-5.832ZM8 12a4 4 0 0 0 4-4 4 4 0 0 0-4 4Zm3.874-4.998A4.002 4.002 0 0 0 4 8a4.002 4.002 0 0 0 3.002 3.874 5 5 0 0 1 4.872-4.872Zm1.124 1.124a5 5 0 0 1-4.872 4.873A4.002 4.002 0 0 0 16 12a4.002 4.002 0 0 0-3.002-3.874Z"/></svg>