<svg xmlns="http://www.w3.org/2000/svg" width="20" height="20" fill="none"><path fill="#000" d="M15.526 12c.267 0 .504.045.708.135.205.09.364.216.477.378a.947.947 0 0 1 .169.555c0 .182-.035.353-.106.513-.068.158-.175.32-.32.487-.145.168-.4.406-.767.715l-.55.478v.038H17V16h-2.988v-.58l1.073-1.001c.317-.3.526-.508.623-.623a1.38 1.38 0 0 0 .21-.323.766.766 0 0 0 .064-.308c0-.158-.048-.276-.143-.353a.575.575 0 0 0-.377-.116 1.16 1.16 0 0 0-.482.105c-.157.07-.32.17-.489.3L14 12.563c.21-.165.385-.282.523-.35.139-.068.29-.12.454-.156.163-.038.347-.057.55-.057ZM13 15h-1.223l-1.263-3.168h-4.07L5.194 15H4L8.014 5h.993L13 15ZM8.493 6.267c-.102.435-.248.915-.437 1.437L6.86 10.79h3.285l-1.18-3.086c-.153-.39-.31-.87-.472-1.437Z"/></svg>