<svg xmlns="http://www.w3.org/2000/svg" width="20" height="20" fill="none"><path fill="#000" d="m17.682 4.971-1.538 2.664 1.332.77L15.11 12.5l-.867-.5 1.866-3.23-.466-.27-4.022 6.966-3.913 3.47 1.048-5.124 6.06-10.496 2.865 1.654ZM9.29 16.198l1.089-.965-.797-.46-.292 1.425Zm.624-2.388 1.132.653 3.732-6.462-1.133-.653-3.73 6.462Zm4.23-7.328 1.133.653 1.039-1.798-1.133-.654-1.038 1.799ZM2.918 1.199a.751.751 0 0 1 .393.012c.214.063.401.208.558.36.166.16.344.373.534.634l.003.003c.687.957.791 2.076.605 3.158-.145.841-.47 1.685-.86 2.465.083.348.17.699.257 1.05l.15-.148.089-.086a.724.724 0 0 1 .304-.187.659.659 0 0 1 .386.004c.21.066.35.22.429.318.159.198.304.488.417.714l.014.03c.057.113.106.213.152.298.056-.129.112-.288.177-.482l.014-.044c.114-.342.272-.816.607-1.151.11-.11.308-.256.579-.224.258.031.41.206.478.302.075.105.128.225.165.32.037.092.07.193.1.28l.67-.67.002-.003.004-.003v-.002a.501.501 0 0 1 .709.707h-.002l-.002.004-.003.003-.017.015v.002l-.976.976c-.11.11-.31.255-.58.223a.696.696 0 0 1-.478-.302 1.508 1.508 0 0 1-.165-.32 3.65 3.65 0 0 1-.044-.119 9.309 9.309 0 0 0-.112.322L7.46 9.7c-.113.342-.271.818-.606 1.153a.724.724 0 0 1-.305.185.66.66 0 0 1-.386-.003.918.918 0 0 1-.428-.318c-.16-.198-.304-.488-.417-.715l-.015-.029a9.44 9.44 0 0 0-.195-.377 8.74 8.74 0 0 0-.403.432 76.916 76.916 0 0 0 1.27 4.313c.267.803.323 1.502.18 2.043-.146.554-.528.992-1.105 1.05-.535.053-1.054-.243-1.468-.702-.424-.47-.798-1.17-1.062-2.096l-.003-.01-.003-.01c-.512-2.129.313-3.786 1.096-4.826-.06-.228-.119-.459-.176-.688a20.37 20.37 0 0 1-2.002 2.666l-.048.052-.013.013-.003.004v.002a.5.5 0 1 1-.733-.68l.002-.003.01-.011.04-.046c.037-.04.091-.102.16-.18.137-.16.332-.39.558-.678A18.404 18.404 0 0 0 3.094 7.7a55.184 55.184 0 0 1-.484-2.28 23.932 23.932 0 0 1-.302-2.003c-.056-.564-.07-1.074 0-1.443.034-.177.1-.4.26-.57a.714.714 0 0 1 .35-.206Zm1.038 9.887c-.47.845-.79 1.954-.472 3.286.235.818.547 1.366.84 1.692.305.338.536.385.626.376.048-.005.166-.036.239-.31.075-.286.069-.776-.163-1.472-.317-.95-.695-2.21-1.07-3.572Zm-.69-8.702a6.36 6.36 0 0 0 .037.936c.053.538.154 1.19.29 1.917.056.296.117.605.183.92.11-.322.195-.644.25-.96.156-.911.05-1.731-.431-2.404a4.8 4.8 0 0 0-.33-.409Z"/></svg>