<svg xmlns="http://www.w3.org/2000/svg" width="20" height="20" fill="none"><path fill="#000" d="m10.785 9.214 4.898 2.286-4.898 2.285L8.5 18.683l-2.286-4.898L1.317 11.5l4.897-2.286L8.5 4.317l2.285 4.897Zm-3.741.589-.077.164-.164.077-3.12 1.456 3.12 1.456.164.077.077.164 1.456 3.12 1.456-3.12.077-.164.164-.077 3.12-1.456-3.12-1.456-.164-.077-.077-.164L8.5 6.683l-1.456 3.12Zm8.786-5.634L18.683 5.5 15.83 6.83 14.5 9.683 13.169 6.83 10.317 5.5l2.852-1.331L14.5 1.317l1.33 2.852Zm-1.832.588-.076.165-.165.076-1.075.502 1.075.502.165.076.076.165.502 1.074.502-1.074.076-.165.165-.076 1.074-.502-1.074-.502-.165-.076-.076-.165-.502-1.075-.502 1.075Z"/></svg>