<svg xmlns="http://www.w3.org/2000/svg" width="20" height="20" fill="none"><path fill="#000" d="M10 9a2 2 0 0 1 1 3.73V15H9v-2.27A2 2 0 0 1 10 9Z"/><path fill="#000" d="m14 7 .204.01A2 2 0 0 1 16 9v6a2 2 0 0 1-1.796 1.99L14 17H6a2 2 0 0 1-1.99-1.796L4 15V9a2 2 0 0 1 2-2V5c0-1.657 1.79-3 4-3s4 1.343 4 3v2ZM7 7h6V5c0-.443-.237-.92-.771-1.321C11.694 3.278 10.909 3 10 3c-.91 0-1.694.278-2.229.679C7.237 4.079 7 4.557 7 5v2ZM6 8a1 1 0 0 0-1 1v6a1 1 0 0 0 1 1h8a1 1 0 0 0 1-1V9a1 1 0 0 0-1-1H6Z"/></svg>